<svg version="1.1" xmlns="http://www.w3.org/2000/svg" xmlns:xlink="http://www.w3.org/1999/xlink" width="143.03294" height="190.57181" viewBox="0,0,143.03294,190.57181"><g transform="translate(-168.69817,-85.36319)"><g data-paper-data="{&quot;isPaintingLayer&quot;:true}" fill-rule="nonzero" stroke-linecap="butt" stroke-linejoin="miter" stroke-miterlimit="10" stroke-dasharray="" stroke-dashoffset="0" style="mix-blend-mode: normal"><g data-paper-data="{&quot;index&quot;:null}"><path d="M206.019,275.532l-9.279,-38.22c7.976,-17.602 -3.853,-23.777 0.814,-36.018c4.666,-12.24 19.643,3.196 19.805,9.967c0.163,6.769 -2.965,11.089 -9.115,22.097c-6.567,11.753 -0.396,24.119 1.256,33.238c1.647,9.089 7.318,8.222 8.891,8.942" fill="#bb9696" stroke="none" stroke-width="1"/><path d="M206.019,275.532l-0.745,-3.07c0,0 0.486,-2.18 1.771,-2.424c1.286,-0.245 2.241,1.31 2.241,1.31c0,0 0.046,-2.321 0.939,-1.137c1.329,1.764 2.418,4.393 7.162,5.013c4.314,0.565 -11.368,0.308 -11.368,0.308" fill="#5f5579" stroke="none" stroke-width="1"/><path d="M218.554,210.069c-1.302,8.665 -5.752,14.19 -10.31,23.289c-4.558,9.099 -2.605,17.605 -2.605,17.605c0,0 3.419,14.296 4.83,19.24c1.411,4.945 8.465,5.329 8.465,5.329h-12.915l-9.279,-38.22c6.729,-10.724 -1.085,-29.464 -1.085,-29.464" fill="none" stroke="#26214b" stroke-width="0.5"/><path d="M205.274,272.462c0,0 0.016,-2.065 1.644,-2.406c1.328,-0.278 2.303,1.107 2.303,1.107c0,0 -0.184,-1.3 0.489,-1.3c0.672,0 0.975,0.952 0.975,0.952" fill="none" stroke="#26214b" stroke-width="0.5"/><path d="M218.08,275.532c-7.977,-0.7 -8.859,-4.369 -8.859,-4.369" fill="none" stroke="#26214b" stroke-width="0.5"/></g><g data-paper-data="{&quot;index&quot;:null}"><path d="M282.585,275.538c0,0 -17.29,-0.088 -17.344,-0.442c-0.244,-4.062 1.439,-53.701 1.439,-53.701l3.581,-4.712l7.658,3.406c0,0 -4.763,20.811 -6.07,26.957c-2.667,12.553 -1.823,14.636 -1.542,19.14c0.481,7.73 12.278,9.352 12.278,9.352" fill="#bb9696" stroke="none" stroke-width="1"/><path d="M265.275,275.279l-0.023,-4.922c0,0 0.688,-2.065 2.641,-2.065c1.954,0 2.443,2.065 2.443,2.065c0,0 -0.774,-2.065 -0.069,-2.065c0.445,0 1.126,2.437 3.631,4.055c2.31,1.493 7.914,3.173 7.914,3.173l-12.169,-0.176" fill="#5f5579" stroke="none" stroke-width="1"/><path d="M278.244,219.06c0,0 -6.132,25.347 -7.325,32.93c-1.194,7.583 -1.465,10.128 -0.272,16.031c1.194,5.903 11.938,7.517 11.938,7.517l-17.31,-0.259c-0.434,-8.07 1.465,-52.591 1.465,-52.591" fill="none" stroke="#26214b" stroke-width="0.5"/><path d="M265.217,270.119c0,0 0.831,-1.827 2.676,-1.827c1.845,0 2.239,1.565 2.239,1.565c0,0 -0.321,-1.565 0.135,-1.565c0.457,0 0.77,0.913 0.77,0.913" fill="none" stroke="#26214b" stroke-width="0.5"/><path d="M281.404,275.52c0,0 -9.929,-1.376 -11.273,-5.663" fill="none" stroke="#26214b" stroke-width="0.5"/></g><g data-paper-data="{&quot;index&quot;:null}"><path d="M168.97,163.978c0,0 2.117,-2.763 24.907,-3.169c22.791,-0.091 66.582,0.529 73.378,-0.162c7.97,-0.293 4.393,-19.217 2.89,-36.437c-1.995,-12.593 0.04,-17.467 1.072,-18.869c1.03,-1.401 16.577,-19.533 16.577,-19.533c2.415,7.042 -6.321,15.022 -6.321,15.022l2.673,0.211l14.407,-13.349c1.423,10.074 -9.056,14.016 -9.056,14.016c4.637,0.851 9.056,3.565 9.056,3.565l-7.734,13.291c0,0 5.157,33.742 5.375,36.134c1.3,14.235 6.875,32.027 2.901,42.934c-7.014,25.679 -32.22,28.523 -53.708,30.619c-19.763,1.927 -41.782,-22.19 -41.782,-22.19l-23.199,-32.781c0,0 -9.848,-7.718 -11.436,-9.302" fill="#d7c3bc" stroke="none" stroke-width="1"/><g stroke="none" stroke-width="1"><path d="M278.136,103.916l-2.171,0.267c0,0 11.504,-13.57 11.938,-18.023c0,0 3.093,8.118 -9.767,17.756" fill="#bb968c"/><path d="M276.244,103.916c0,0 0.832,-1.068 2.082,-2.669c0.63,-0.794 1.333,-1.745 2.095,-2.755c0.75,-1.017 1.562,-2.095 2.322,-3.206c0.393,-0.548 0.774,-1.103 1.134,-1.658c0.371,-0.55 0.721,-1.098 1.052,-1.634c0.343,-0.531 0.637,-1.062 0.933,-1.558c0.307,-0.492 0.53,-0.989 0.767,-1.434c0.241,-0.444 0.407,-0.874 0.58,-1.246c0.084,-0.188 0.163,-0.363 0.235,-0.526c0.056,-0.168 0.109,-0.322 0.155,-0.461c0.193,-0.56 0.304,-0.88 0.304,-0.88c0,0 -0.066,0.333 -0.182,0.915c-0.032,0.146 -0.068,0.307 -0.106,0.483c-0.055,0.171 -0.115,0.355 -0.178,0.552c-0.132,0.394 -0.253,0.852 -0.474,1.313c-0.209,0.466 -0.404,0.989 -0.68,1.505c-0.267,0.521 -0.526,1.085 -0.86,1.629c-0.629,1.112 -1.365,2.259 -2.146,3.371c-0.387,0.56 -0.796,1.103 -1.195,1.639c-0.393,0.543 -0.819,1.044 -1.21,1.547c-0.799,0.99 -1.591,1.878 -2.266,2.638c-0.678,0.76 -1.28,1.359 -1.693,1.784c-0.418,0.422 -0.669,0.651 -0.669,0.651" fill="#26214b"/></g><path d="M278.279,103.654c0,0 12.118,-8.306 9.605,-17.765c0,0 -14.644,17.22 -16.002,18.782c-1.507,1.733 -3.297,6.012 -2.279,15.355c1.017,9.343 3.485,30.628 2.346,35.178c-1.14,4.549 -2.062,5.687 -10.283,5.687h-68.331c0,0 -21.041,0.162 -24.256,3.168l9.156,7.393" fill="none" stroke="#26214b" stroke-width="0.5"/><g><path d="M287.019,101.372c8.999,-4.16 11.575,-13.354 11.575,-13.354c0,0 2.603,9.017 -9.097,13.69z" fill="#bb968c" stroke="none" stroke-width="1"/><path d="M310.851,120.362c-0.393,1.473 -2.196,2.287 -2.196,2.287c0,0 -0.488,0.318 -10.471,-0.937c-5.605,-0.706 -9.325,0.072 -11.966,0.206c-0.734,0.037 -0.916,0.655 -1.293,0.637c-0.188,-0.01 -1.073,-1.127 -1.251,-1.127c-0.143,0 0.057,1.899 -0.326,1.025c-0.256,-0.584 -1.178,-1.675 -1.659,-2.319c-15.484,-20.744 13.63,-14.685 13.63,-14.685c-0.058,-0.475 -0.103,-0.586 0.196,-1.074c0.298,-0.487 1.624,0.106 1.624,0.106c0,0 2.106,1.102 1.989,1.422c-1.77,4.87 8.403,8.792 11.894,9.345c1.272,0.202 -0.171,5.114 -0.171,5.114" fill="#f0e1db" stroke="none" stroke-width="1"/><path d="M281.399,101.09c0,0 10.507,-0.596 17.81,4.641c0,0 -3.383,5.819 11.813,9.517c0,0 1.033,1.014 0,4.588c-1.034,3.575 -3.172,2.974 -5.266,2.6c-5.155,-0.92 -15.466,-1.083 -19.59,-0.487c-0.325,0.054 -1.411,0.162 -0.814,0.921c0.598,0.758 -1.682,-1.3 -1.682,-1.3l-0.108,1.467l-0.922,-2.009c0,0 -8.954,-9.045 -4.288,-13.919c4.667,-4.875 16.985,-1.517 16.985,-1.517c0,0 -0.701,-2.66 2.664,-0.657" fill="none" stroke="#26214b" stroke-width="0.5"/><path d="M284.254,101.122l14.407,-13.349c0,0 2.401,8.855 -9.101,14.016" fill="none" stroke="#26214b" stroke-width="0.5"/><path d="M298.662,87.773c-2.402,9.058 -11.643,13.599 -11.643,13.599" fill="none" stroke="#26214b" stroke-width="0.5"/></g><g fill="#26214b" stroke="none" stroke-width="1"><path d="M292.434,109.546c0,0 0,3.777 -3.602,3.615c-3.151,-0.142 -3.602,-3.615 -3.602,-3.615h7.204"/><path d="M310.974,119.237c0,0 -2.657,0.256 -6.198,-4.05h6.053c0,0 1.366,2.222 0.145,4.05"/><path d="M292.624,110.466c0,0 0.095,0.318 0.094,0.817c-0.013,0.246 -0.021,0.541 -0.105,0.847c-0.031,0.154 -0.094,0.307 -0.15,0.464c-0.081,0.147 -0.138,0.31 -0.242,0.447c-0.185,0.289 -0.436,0.536 -0.703,0.713c-0.123,0.104 -0.276,0.151 -0.405,0.216c-0.129,0.07 -0.265,0.098 -0.385,0.132c-0.121,0.031 -0.229,0.071 -0.332,0.071c-0.101,0.008 -0.188,0.014 -0.261,0.02c-0.143,0.007 -0.224,0.011 -0.224,0.011c0,0 0.077,-0.027 0.213,-0.073c0.068,-0.021 0.149,-0.046 0.242,-0.076c0.096,-0.022 0.191,-0.085 0.301,-0.125c0.108,-0.049 0.229,-0.09 0.339,-0.171c0.109,-0.077 0.238,-0.136 0.342,-0.237c0.224,-0.179 0.441,-0.397 0.601,-0.659c0.096,-0.119 0.149,-0.266 0.227,-0.396c0.051,-0.143 0.126,-0.275 0.163,-0.417c0.096,-0.276 0.156,-0.548 0.196,-0.783c0.079,-0.472 0.089,-0.801 0.089,-0.801"/></g></g><g data-paper-data="{&quot;index&quot;:null}"><path d="M180.518,163.888c0,0 -0.531,0.071 -1.314,0.234c-0.782,0.173 -1.819,0.413 -2.818,0.756c-0.5,0.169 -0.98,0.386 -1.429,0.576c-0.452,0.185 -0.873,0.358 -1.234,0.506c-0.173,0.086 -0.339,0.158 -0.487,0.223c-0.152,0.058 -0.268,0.134 -0.377,0.18c-0.209,0.104 -0.34,0.158 -0.34,0.158l-0.042,-0.05c0,0 0.08,-0.11 0.243,-0.29c0.15,-0.197 0.416,-0.414 0.745,-0.672c0.34,-0.236 0.759,-0.484 1.235,-0.681c0.482,-0.183 1.012,-0.321 1.54,-0.449c1.057,-0.253 2.125,-0.418 2.93,-0.481c0.806,-0.069 1.343,-0.075 1.343,-0.075z" fill="#26214b" stroke="none" stroke-width="1"/><path d="M182.719,165.345c0,0 -0.493,0.17 -1.213,0.472c-0.717,0.31 -1.669,0.725 -2.572,1.223c-0.454,0.245 -0.88,0.534 -1.286,0.784c-0.199,0.128 -0.396,0.247 -0.589,0.352c-0.182,0.118 -0.359,0.224 -0.527,0.319c-0.161,0.104 -0.309,0.198 -0.44,0.282c-0.139,0.078 -0.243,0.163 -0.342,0.224c-0.189,0.129 -0.308,0.197 -0.308,0.197l-0.049,-0.042c0,0 0.063,-0.119 0.193,-0.316c0.118,-0.212 0.344,-0.459 0.624,-0.754c0.292,-0.278 0.66,-0.576 1.086,-0.841c0.436,-0.246 0.923,-0.464 1.409,-0.672c0.972,-0.418 1.965,-0.763 2.726,-0.97c0.758,-0.213 1.27,-0.321 1.27,-0.321z" fill="#26214b" stroke="none" stroke-width="1"/><path d="M291.483,121.613l8.846,60.888c0,0 5.128,32.415 -29.465,41.596c-34.593,9.18 -44.36,3.087 -67.151,-17.549" fill="none" stroke="#26214b" stroke-width="0.5"/></g><g data-paper-data="{&quot;index&quot;:null}"><path d="M200.663,275.766h-12.942l-9.197,-39.24c7.108,-10.941 0.651,-24.481 -3.383,-38.626c-4.035,-14.146 0.018,-22.793 6.289,-30.128c6.272,-7.335 22.543,9.502 24.28,18.438c1.736,8.937 -1.656,20.338 -4.584,27.83c-6.006,15.365 -8.467,16.284 -12.266,23.712c-4.213,8.234 2.253,26.45 3.012,31.839c0.855,6.059 8.791,6.175 8.791,6.175" fill="#d7c3bc" stroke="none" stroke-width="1"/><path d="M187.922,275.685l-0.895,-3.791c0,0 0.488,-1.691 2.027,-1.682c1.622,0.007 1.845,1.408 1.845,1.408c0,0 -0.554,-1.4 0.749,-1.4c1.302,0 0.686,1.602 2.748,3.127c2.062,1.525 4.054,1.941 5.41,2.229c1.356,0.289 -11.884,0.109 -11.884,0.109" fill="#5f5579" stroke="none" stroke-width="1"/><path d="M206.236,194.606c-2.604,19.579 -11.599,34.026 -16.279,41.352c-4.151,6.499 -1.384,17.71 -1.384,17.71c0,0 2.035,9.749 3.5,15.842c1.466,6.094 8.791,6.175 8.791,6.175h-12.942l-9.197,-39.24c2.93,-3.331 3.093,-9.505 3.093,-9.505c0.407,-16.33 -8.059,-26.16 -8.059,-39.809c0,-13.648 9.198,-20.635 9.198,-20.635" fill="none" stroke="#26214b" stroke-width="0.5"/><path d="M187.156,272.694c-0.149,-0.493 -0.156,-1.052 0.061,-1.561c0.22,-0.52 0.737,-0.879 1.264,-1.021c0.133,-0.039 0.268,-0.065 0.403,-0.084c0.072,-0.008 0.124,-0.022 0.213,-0.024l0.193,-0.009c0.134,0.005 0.305,0.008 0.439,0.051c0.144,0.03 0.282,0.088 0.413,0.154c0.263,0.138 0.485,0.348 0.64,0.589c0.16,0.245 0.268,0.495 0.331,0.792l-0.422,0.103c-0.076,-0.316 -0.115,-0.619 -0.051,-0.956c0.033,-0.165 0.112,-0.343 0.255,-0.474c0.145,-0.131 0.335,-0.185 0.501,-0.19c0.086,-0.003 0.176,0.009 0.239,0.018c0.067,0.005 0.161,0.035 0.237,0.054c0.154,0.054 0.294,0.141 0.407,0.253c0.223,0.228 0.325,0.534 0.322,0.825c-0.074,-0.28 -0.218,-0.541 -0.438,-0.692c-0.108,-0.076 -0.231,-0.119 -0.355,-0.149c-0.067,-0.003 -0.112,-0.02 -0.19,-0.016c-0.082,-0.001 -0.137,0 -0.196,0.009c-0.25,0.035 -0.374,0.188 -0.402,0.431c-0.035,0.235 0.013,0.519 0.087,0.759l-0.422,0.102c-0.048,-0.205 -0.149,-0.435 -0.276,-0.617c-0.129,-0.186 -0.288,-0.345 -0.48,-0.449c-0.097,-0.051 -0.198,-0.096 -0.306,-0.12c-0.112,-0.036 -0.204,-0.038 -0.325,-0.053l-0.193,-0.002c-0.04,-0.005 -0.115,0.008 -0.171,0.011c-0.121,0.012 -0.241,0.029 -0.357,0.057c-0.468,0.094 -0.896,0.343 -1.14,0.76c-0.251,0.413 -0.321,0.938 -0.281,1.449" fill="#26214b" stroke="none" stroke-width="1"/><path d="M200.322,275.685c0,0 -8.249,0 -9.423,-4.065" fill="none" stroke="#26214b" stroke-width="0.5"/></g><g data-paper-data="{&quot;index&quot;:null}"><path d="M262.399,224.607c0,0 -7.372,31.883 -7.86,35.241c-0.487,3.357 -0.483,12.614 8.665,15.615c0,0 -11.224,0.33 -13.828,0.222l2.197,-49.442z" fill="#d7c3bc" stroke="none" stroke-width="1"/><path d="M249.376,275.685l0.233,-4.522c0,0 1.053,-2.122 2.95,-1.9c1.896,0.223 1.89,1.335 1.89,1.335c0,0 -0.882,-1.393 0.876,-1.302c0.814,0.042 2.76,4.601 7.313,5.835c4.349,1.178 -13.262,0.554 -13.262,0.554" fill="#5f5579" stroke="none" stroke-width="1"/><path d="M261.918,226.242l-7.34,33.356c0,0 -2.516,13.649 10.181,16.087h-15.383l2.109,-47.765" fill="none" stroke="#26214b" stroke-width="0.5"/><path d="M249.563,271.449c0,0 0.09,-2.049 2.66,-2.177c1.897,-0.094 2.036,0.591 2.036,0.591c0,0 -0.41,-0.591 0.893,-0.591c0.487,0 0.987,0.59 0.987,0.59" fill="none" stroke="#26214b" stroke-width="0.5"/><path d="M264.07,275.532c0,0 -8.888,-0.313 -9.811,-5.675" fill="none" stroke="#26214b" stroke-width="0.5"/></g><g data-paper-data="{&quot;index&quot;:null}" fill="#26214b" stroke="none" stroke-width="1"><path d="M245.806,228.026c0,0 0.048,-0.007 0.138,-0.02c0.084,-0.012 0.22,-0.043 0.388,-0.081c0.167,-0.044 0.372,-0.098 0.602,-0.179c0.233,-0.069 0.486,-0.182 0.765,-0.294c0.55,-0.247 1.174,-0.581 1.803,-1.006c0.313,-0.212 0.625,-0.452 0.939,-0.696c0.297,-0.267 0.623,-0.512 0.905,-0.805c0.284,-0.29 0.59,-0.561 0.844,-0.871c0.257,-0.307 0.54,-0.586 0.761,-0.899c0.23,-0.305 0.453,-0.6 0.665,-0.879c0.193,-0.293 0.376,-0.569 0.544,-0.826c0.352,-0.502 0.569,-0.967 0.757,-1.271c0.177,-0.312 0.278,-0.49 0.278,-0.49c0,0 -0.094,0.181 -0.26,0.499c-0.178,0.31 -0.379,0.784 -0.714,1.3c-0.161,0.263 -0.334,0.547 -0.517,0.848c-0.203,0.288 -0.417,0.592 -0.639,0.907c-0.212,0.322 -0.485,0.613 -0.735,0.933c-0.246,0.322 -0.545,0.606 -0.823,0.911c-0.277,0.307 -0.598,0.567 -0.891,0.849c-0.313,0.26 -0.621,0.516 -0.936,0.744c-0.628,0.458 -1.259,0.825 -1.82,1.1c-0.286,0.128 -0.545,0.253 -0.787,0.336c-0.239,0.093 -0.453,0.157 -0.63,0.21c-0.181,0.048 -0.319,0.085 -0.424,0.103c-0.1,0.018 -0.153,0.028 -0.153,0.028z"/><path d="M238.38,227.541c0,0 0.049,0 0.139,0.002c0.085,0.003 0.224,-0.006 0.396,-0.016c0.172,-0.017 0.383,-0.035 0.623,-0.078c0.241,-0.031 0.51,-0.101 0.803,-0.166c0.583,-0.154 1.253,-0.381 1.943,-0.698c0.344,-0.158 0.691,-0.344 1.041,-0.534c0.337,-0.215 0.698,-0.404 1.025,-0.646c0.327,-0.24 0.674,-0.457 0.975,-0.722c0.304,-0.261 0.628,-0.49 0.897,-0.762c0.277,-0.264 0.546,-0.518 0.8,-0.76c0.239,-0.257 0.465,-0.501 0.672,-0.725c0.43,-0.439 0.72,-0.862 0.956,-1.131c0.225,-0.279 0.354,-0.438 0.354,-0.438c0,0 -0.123,0.163 -0.339,0.449c-0.225,0.278 -0.502,0.713 -0.917,1.167c-0.201,0.233 -0.418,0.485 -0.649,0.751c-0.247,0.252 -0.508,0.517 -0.778,0.792c-0.262,0.283 -0.58,0.526 -0.878,0.8c-0.295,0.277 -0.637,0.509 -0.961,0.764c-0.324,0.258 -0.683,0.462 -1.018,0.693c-0.351,0.206 -0.698,0.408 -1.045,0.582c-0.695,0.349 -1.377,0.607 -1.977,0.788c-0.302,0.079 -0.578,0.161 -0.831,0.202c-0.25,0.054 -0.472,0.082 -0.656,0.106c-0.186,0.017 -0.328,0.031 -0.435,0.032c-0.101,0.001 -0.155,0.002 -0.155,0.002z"/><path d="M232.405,226.151c0,0 0.684,0.058 1.733,-0.024c0.522,-0.035 1.13,-0.113 1.776,-0.227c0.643,-0.126 1.331,-0.274 1.997,-0.495c0.339,-0.094 0.665,-0.223 0.99,-0.342c0.328,-0.111 0.631,-0.265 0.936,-0.394c0.306,-0.124 0.58,-0.288 0.85,-0.423c0.272,-0.134 0.516,-0.284 0.74,-0.425c0.457,-0.265 0.812,-0.526 1.06,-0.71c0.25,-0.181 0.394,-0.285 0.394,-0.285c0,0 -0.139,0.11 -0.382,0.301c-0.241,0.193 -0.586,0.469 -1.035,0.755c-0.218,0.15 -0.457,0.311 -0.725,0.455c-0.266,0.147 -0.537,0.324 -0.84,0.462c-0.3,0.141 -0.602,0.31 -0.929,0.435c-0.323,0.134 -0.648,0.277 -0.987,0.387c-0.666,0.251 -1.357,0.429 -2.007,0.583c-0.653,0.143 -1.269,0.248 -1.802,0.306c-1.062,0.126 -1.795,0.095 -1.795,0.095z"/><path d="M267.928,224.602c0,0 0.047,-0.01 0.136,-0.027c0.084,-0.015 0.218,-0.053 0.383,-0.099c0.166,-0.052 0.367,-0.115 0.593,-0.207c0.23,-0.081 0.477,-0.205 0.751,-0.331c0.537,-0.273 1.144,-0.636 1.752,-1.09c0.303,-0.227 0.603,-0.482 0.906,-0.741c0.283,-0.28 0.597,-0.54 0.865,-0.846c0.27,-0.304 0.563,-0.589 0.801,-0.911c0.242,-0.319 0.511,-0.611 0.717,-0.934c0.216,-0.315 0.424,-0.621 0.622,-0.91c0.179,-0.301 0.348,-0.587 0.504,-0.85c0.328,-0.519 0.523,-0.994 0.695,-1.308c0.162,-0.319 0.255,-0.501 0.255,-0.501c0,0 -0.086,0.185 -0.237,0.51c-0.162,0.319 -0.341,0.802 -0.651,1.333c-0.147,0.27 -0.307,0.562 -0.476,0.871c-0.189,0.298 -0.387,0.612 -0.594,0.937c-0.196,0.332 -0.455,0.636 -0.689,0.966c-0.231,0.334 -0.516,0.633 -0.779,0.951c-0.261,0.319 -0.57,0.594 -0.849,0.89c-0.3,0.275 -0.597,0.545 -0.899,0.788c-0.606,0.487 -1.218,0.884 -1.766,1.185c-0.28,0.141 -0.532,0.279 -0.771,0.373c-0.233,0.104 -0.444,0.179 -0.618,0.24c-0.178,0.057 -0.314,0.1 -0.42,0.124c-0.098,0.022 -0.15,0.034 -0.15,0.034z"/><path d="M275.996,222.204c0,0 0.061,-0.019 0.175,-0.053c0.108,-0.033 0.28,-0.1 0.489,-0.187c0.422,-0.174 1.004,-0.489 1.664,-0.931c0.328,-0.224 0.675,-0.478 1.022,-0.776c0.364,-0.277 0.693,-0.632 1.062,-0.967c0.333,-0.372 0.705,-0.733 1.029,-1.147c0.324,-0.413 0.672,-0.819 0.963,-1.269c0.304,-0.439 0.611,-0.877 0.867,-1.339c0.267,-0.454 0.543,-0.894 0.756,-1.35c0.221,-0.45 0.456,-0.877 0.642,-1.298c0.18,-0.425 0.351,-0.826 0.509,-1.195c0.327,-0.737 0.509,-1.385 0.679,-1.823c0.157,-0.443 0.247,-0.697 0.247,-0.697c0,0 -0.083,0.256 -0.228,0.703c-0.159,0.442 -0.324,1.096 -0.632,1.843c-0.148,0.375 -0.309,0.781 -0.479,1.211c-0.175,0.428 -0.399,0.863 -0.609,1.321c-0.203,0.464 -0.468,0.914 -0.725,1.378c-0.245,0.472 -0.542,0.923 -0.839,1.374c-0.281,0.463 -0.623,0.883 -0.942,1.31c-0.316,0.429 -0.685,0.806 -1.013,1.194c-0.368,0.351 -0.694,0.722 -1.059,1.016c-0.347,0.315 -0.698,0.585 -1.029,0.826c-0.669,0.473 -1.265,0.817 -1.708,1.014c-0.223,0.1 -0.394,0.172 -0.526,0.217c-0.125,0.041 -0.192,0.063 -0.192,0.063z"/><path d="M287.475,215.742c0,0 0.064,-0.044 0.183,-0.128c0.114,-0.08 0.285,-0.22 0.494,-0.397c0.208,-0.183 0.456,-0.41 0.724,-0.691c0.272,-0.274 0.556,-0.609 0.86,-0.977c0.295,-0.376 0.613,-0.786 0.909,-1.25c0.322,-0.446 0.59,-0.962 0.897,-1.478c0.271,-0.535 0.561,-1.085 0.811,-1.665c0.231,-0.587 0.51,-1.168 0.696,-1.783c0.202,-0.61 0.424,-1.214 0.568,-1.831c0.154,-0.614 0.34,-1.21 0.438,-1.807c0.111,-0.593 0.236,-1.163 0.324,-1.709c0.071,-0.55 0.139,-1.069 0.201,-1.547c0.072,-0.479 0.109,-0.92 0.129,-1.312c0.027,-0.392 0.05,-0.734 0.069,-1.016c0.039,-0.563 0.061,-0.885 0.061,-0.885c0,0 -0.014,0.323 -0.041,0.886c-0.013,0.282 -0.028,0.625 -0.047,1.017c-0.011,0.393 -0.038,0.837 -0.1,1.317c-0.052,0.482 -0.108,1.003 -0.168,1.555c-0.075,0.549 -0.188,1.125 -0.286,1.723c-0.085,0.601 -0.259,1.204 -0.401,1.825c-0.131,0.624 -0.341,1.237 -0.532,1.856c-0.174,0.626 -0.442,1.218 -0.663,1.817c-0.239,0.591 -0.52,1.156 -0.784,1.705c-0.3,0.529 -0.561,1.06 -0.878,1.523c-0.292,0.478 -0.607,0.904 -0.901,1.297c-0.303,0.384 -0.586,0.734 -0.862,1.023c-0.269,0.296 -0.522,0.537 -0.734,0.732c-0.218,0.193 -0.387,0.339 -0.518,0.436c-0.127,0.093 -0.195,0.142 -0.195,0.142z"/><path d="M297.28,203.217c0,0 0.352,-1.276 0.593,-3.236c0.136,-0.976 0.222,-2.124 0.268,-3.354c0.019,-0.615 0.04,-1.25 0.016,-1.897c0,-0.646 -0.045,-1.301 -0.094,-1.955c-0.021,-0.657 -0.122,-1.307 -0.185,-1.949c-0.061,-0.644 -0.2,-1.266 -0.291,-1.875c-0.094,-0.609 -0.254,-1.183 -0.364,-1.737c-0.106,-0.555 -0.264,-1.066 -0.399,-1.54c-0.145,-0.471 -0.242,-0.915 -0.376,-1.292c-0.131,-0.38 -0.246,-0.711 -0.34,-0.983c-0.189,-0.546 -0.296,-0.857 -0.296,-0.857c0,0 0.126,0.304 0.347,0.837c0.11,0.268 0.245,0.592 0.4,0.964c0.159,0.37 0.283,0.808 0.44,1.279c0.153,0.472 0.329,0.98 0.456,1.535c0.129,0.554 0.313,1.127 0.409,1.742c0.1,0.612 0.246,1.238 0.315,1.887c0.071,0.648 0.181,1.303 0.209,1.965c0.042,0.662 0.079,1.323 0.072,1.976c0.017,0.651 -0.011,1.292 -0.037,1.912c-0.017,0.621 -0.095,1.218 -0.144,1.784c-0.079,0.563 -0.134,1.097 -0.226,1.586c-0.152,0.98 -0.369,1.78 -0.511,2.339c-0.153,0.558 -0.262,0.869 -0.262,0.869"/><path d="M293.858,161.419c0,0 0.174,0.347 0.478,0.954c0.145,0.306 0.323,0.679 0.526,1.105c0.208,0.425 0.424,0.913 0.627,1.459c0.854,2.163 1.921,5.076 2.836,8.041c0.241,0.737 0.44,1.487 0.655,2.22c0.213,0.734 0.383,1.467 0.569,2.17c0.174,0.706 0.314,1.397 0.461,2.047c0.131,0.655 0.232,1.279 0.336,1.852c0.114,0.572 0.132,1.111 0.168,1.582c0.045,0.472 0.04,0.886 0.04,1.226c0.003,0.679 0.004,1.067 0.004,1.067c0,0 -0.042,-0.386 -0.116,-1.06c-0.034,-0.336 -0.073,-0.743 -0.167,-1.207c-0.093,-0.462 -0.166,-0.986 -0.25,-1.557c-0.104,-0.569 -0.203,-1.188 -0.334,-1.838c-0.147,-0.647 -0.285,-1.332 -0.458,-2.035c-0.185,-0.7 -0.354,-1.43 -0.567,-2.16c-0.213,-0.73 -0.413,-1.476 -0.651,-2.211c-0.913,-2.955 -1.977,-5.861 -2.828,-8.018c-0.23,-0.533 -0.4,-1.038 -0.555,-1.484c-0.159,-0.445 -0.297,-0.832 -0.41,-1.151c-0.232,-0.638 -0.364,-1.002 -0.364,-1.002"/></g></g></g></svg>