<svg version="1.1" xmlns="http://www.w3.org/2000/svg" xmlns:xlink="http://www.w3.org/1999/xlink" width="45.04952" height="55.79091" viewBox="0,0,45.04952,55.79091"><g transform="translate(-217.5,-152.43754)"><g data-paper-data="{&quot;isPaintingLayer&quot;:true}" stroke-linecap="butt" stroke-miterlimit="10" stroke-dasharray="" stroke-dashoffset="0" style="mix-blend-mode: normal"><g data-paper-data="{&quot;index&quot;:null}" stroke-linejoin="miter"><path d="M255.84508,206.80308c-20.58243,-0.63897 -36.9824,-12.24561 -36.9824,-26.47009c0,-14.22448 16.39997,-25.83111 36.9824,-26.47008" fill="#4e9a06" fill-rule="evenodd" stroke="#231f20" stroke-width="2.72535"/><path d="M255.84257,205.75155c-2.18184,-0.07379 -4.31371,-0.2798 -6.38189,-0.59669c-2.3047,-0.67892 -4.62718,-1.34908 -6.84387,-2.29038c-1.6882,-0.83459 -3.31049,-1.8015 -4.90795,-2.80844c-1.44841,-0.87323 -2.80269,-1.88077 -4.1445,-2.91751c-1.68529,-1.24473 -3.1208,-2.80213 -4.60802,-4.28083c-1.46085,-1.40496 -2.80697,-2.92283 -4.0627,-4.52622c-1.5306,-1.8325 -2.85568,-3.82608 -4.11723,-5.86228c-0.08031,-0.16101 -0.19829,-0.30921 -0.29993,-0.46353c-0.004,-0.0064 0.004,-0.0212 0,-0.0272c-0.027,-0.29028 -0.0418,-0.57967 -0.0545,-0.87252l2.12678,2.26311c3.01391,3.27491 6.28583,6.32845 9.62504,9.24332c1.95333,1.43526 4.02939,2.66542 6.13495,3.84456c1.34764,0.71089 2.6392,1.51474 3.9809,2.23585c0.97524,0.45082 2.03275,0.74315 3.05383,1.06339c1.97754,0.53163 3.93331,1.08856 5.94408,1.47239c1.43509,0.24548 2.89985,0.57326 4.36263,0.51806c0.07408,-0.0018 0.14806,-0.0041 0.22196,-0.0068" fill="#356804" fill-rule="evenodd" stroke="none" stroke-width="1"/><path d="M255.86925,193.85161c-0.98935,0.03152 -1.97847,0.0475 -2.97297,0.01501c-2.20167,-0.27705 -4.37804,-0.70403 -6.54394,-1.19972c-2.2414,-0.58905 -4.51657,-1.11994 -6.7348,-1.79959c-1.79776,-0.65349 -3.57484,-1.37198 -5.20789,-2.39944c-3.56114,-1.94434 -7.03745,-4.02577 -10.52484,-6.10768c-0.74457,-0.49817 -1.5509,-0.92853 -2.34491,-1.33606c-0.61559,0.08186 -1.04411,-0.95392 -0.3272,-1.14519c0.11213,0.0187 0.21607,0.056 0.3272,0.0818h0.00007c0.59501,0.13816 1.19372,0.36633 1.79959,0.46353c1.53377,0.24267 3.02123,0.65756 4.47169,1.22699c1.93448,0.69937 3.80473,1.61117 5.72595,2.34491c2.53503,0.87728 5.0975,1.64138 7.68913,2.31765c1.27609,0.27023 2.57394,0.43572 3.87183,0.54532c2.32705,0.26243 4.65713,0.40809 6.9802,0.70893c1.24681,0.21971 2.52362,0.29225 3.78976,0.22511" fill="#356804" fill-rule="evenodd" stroke="none" stroke-width="1"/><path d="M255.87899,181.15137c-2.04029,0.07083 -4.07555,0.18595 -6.11835,0.14537c-2.0515,-0.09941 -4.0857,-0.32547 -6.13494,-0.46353c-0.6742,-0.05832 -1.41994,-0.04959 -2.01772,0.32719c-0.567,0.39788 -1.00559,1.01895 -1.69051,1.22699c-1.06816,0.26468 -2.18535,0.15657 -3.27197,0.10907c-0.66751,0.00017 -1.30826,-0.1315 -1.96319,-0.2454c-1.76323,-0.41269 -3.51162,-0.96068 -5.28968,-1.30879c-2.14219,-0.45941 -4.28979,-0.66229 -6.46214,-0.89979c-0.40683,-0.1211 -0.95839,-0.0153 -1.39059,-0.0818c-0.25932,-0.0399 -0.46015,-0.13504 -0.62713,-0.38173c0.07828,-0.6123 0.95022,-0.34663 1.39059,-0.38173c0.97889,-0.09 1.93839,-0.27968 2.91751,-0.38173c1.92643,-0.23005 3.82137,-0.71218 5.61688,-1.47239c1.30604,-0.6274 2.60751,-1.25915 3.9809,-1.71778c1.02655,-0.4403 2.13295,-0.60204 3.21743,-0.818c1.40063,-0.33895 2.84946,-0.52128 4.28083,-0.65439c3.59854,-0.24778 7.1976,-0.26542 10.7975,-0.4908c0.91446,-0.07428 1.83178,-0.15311 2.74998,-0.23544" fill="#356804" fill-rule="evenodd" stroke="none" stroke-width="1"/><path d="M255.31455,161.10145c-1.50021,-1.16616 -34.5321,15.97064 -34.21091,15.91452c0.0405,-0.59719 0.69104,-0.8804 1.06339,-1.25426c1.62464,-1.76252 3.31709,-3.45775 5.12608,-5.01702c1.56014,-1.33346 3.16567,-2.61882 4.82616,-3.8173c2.00144,-1.33086 4.10178,-2.50258 6.21674,-3.62643c1.33107,-0.7551 2.7418,-1.317 4.1445,-1.90865c1.41519,-0.54202 2.83323,-1.02856 4.28083,-1.47239c2.07312,-0.70832 4.22915,-1.13721 6.38034,-1.49965c0.75069,-0.08846 1.48311,-0.25893 2.23585,-0.29993l0.00009,-0.00018c0.16057,-0.00877 0.32459,-0.01532 0.48826,-0.01314M255.87169,170.04631c-1.28427,0.13426 -2.56853,0.2993 -3.84794,0.45298c-2.88571,0.36283 -5.76838,0.52871 -8.64346,0.98159c-1.172,0.21874 -2.38108,0.36091 -3.54463,0.62713c-1.92583,0.38998 -3.78253,1.0019 -5.61689,1.71778c-1.47481,0.76081 -2.93797,1.6183 -4.44442,2.31765c-1.6564,0.82687 -3.37323,1.49901 -5.12609,2.07225c-0.8487,0.29921 -1.73753,0.36656 -2.56304,0.73619c-0.41974,0.18837 -1.25979,0.43795 -1.44512,-0.1636c0.01,-0.33344 0.22349,-0.51282 0.46353,-0.65439c-0.20003,-0.57674 32.13027,-16.47535 34.38769,-14.69016" fill="#356804" fill-rule="nonzero" stroke="none" stroke-width="1"/><path d="M255.87112,155.49047c-1.10433,0.01106 -2.20585,0.15552 -3.27477,0.44855c-2.72722,0.67011 -5.46897,1.26877 -8.1254,2.20858c-0.9069,0.2383 -1.70224,0.78423 -2.53577,1.19973c-2.04412,1.09662 -4.08461,2.24798 -6.08042,3.43556c-1.10508,0.6242 -2.10674,1.41978 -3.1629,2.12679c-1.47765,0.96016 -2.83396,2.11075 -4.1445,3.29923c-1.69881,1.4313 -3.04682,3.22494 -4.49896,4.90796c-1.10947,1.36894 -2.25232,2.71476 -3.35377,4.08996c0.0265,-0.14765 0.0516,-0.28941 0.0818,-0.43626c1.03027,-1.577 2.14021,-3.10183 3.29924,-4.58076c0.70677,-0.93955 1.47453,-1.80769 2.31764,-2.61758c1.95092,-1.87927 3.94084,-3.7231 6.08041,-5.37148c1.84476,-1.35642 3.79268,-2.57939 5.64415,-3.92637c1.36275,-0.86531 2.72942,-1.76202 4.17177,-2.48124c1.56261,-0.6651 3.1229,-1.27959 4.71709,-1.85412c2.82106,-0.57353 5.78129,-0.93203 8.83869,-1.03359" fill="#356804" fill-rule="evenodd" stroke="none" stroke-width="1"/><path d="M235.5175,166.23582c-3.38396,1.92144 -4.95238,4.86429 -6.18016,3.41599c-1.22782,-1.44835 0.52087,-4.17853 3.90485,-6.09997c3.38301,-1.92087 7.12012,-2.30553 8.34793,-0.85717c1.22783,1.44833 -2.69059,1.62085 -6.07261,3.54118z" fill="#bfef90" fill-rule="evenodd" stroke="none" stroke-width="1"/></g><path d="M261.18023,180.333c0,14.65 -2.61915,26.52617 -5.85002,26.52617c-3.23088,0 -5.85003,-11.87617 -5.85003,-26.52617c0,-14.65 2.61915,-26.52617 5.85003,-26.52617c3.23088,0 5.85002,11.87617 5.85002,26.52617z" data-paper-data="{&quot;index&quot;:null}" fill="#ee1717" fill-rule="evenodd" stroke="#231f20" stroke-width="2.73858" stroke-linejoin="round"/><path d="M256.13702,163.29219c0,1.2692 -0.47487,2.29809 -1.06066,2.29809c-0.58578,0 -1.06066,-1.02889 -1.06066,-2.29809c0,-1.26921 0.47488,-2.2981 1.06066,-2.2981c0.58579,0 1.06066,1.02889 1.06066,2.2981z" data-paper-data="{&quot;index&quot;:null}" fill="#231f20" fill-rule="evenodd" stroke="none" stroke-width="1" stroke-linejoin="miter"/><path d="M257.02091,171.24715c0,1.2692 -0.47487,2.29809 -1.06066,2.29809c-0.58578,0 -1.06066,-1.02889 -1.06066,-2.29809c0,-1.26921 0.47488,-2.2981 1.06066,-2.2981c0.58579,0 1.06066,1.02889 1.06066,2.2981z" data-paper-data="{&quot;index&quot;:null}" fill="#231f20" fill-rule="evenodd" stroke="none" stroke-width="1" stroke-linejoin="miter"/><path d="M254.19248,176.90401c0,1.2692 -0.47487,2.29809 -1.06066,2.29809c-0.58578,0 -1.06066,-1.02889 -1.06066,-2.29809c0,-1.26921 0.47488,-2.2981 1.06066,-2.2981c0.58579,0 1.06066,1.02889 1.06066,2.2981z" data-paper-data="{&quot;index&quot;:null}" fill="#231f20" fill-rule="evenodd" stroke="none" stroke-width="1" stroke-linejoin="miter"/><path d="M258.08157,180.96987c0,1.2692 -0.47487,2.29809 -1.06066,2.29809c-0.58578,0 -1.06066,-1.02889 -1.06066,-2.29809c0,-1.26921 0.47488,-2.2981 1.06066,-2.2981c0.58579,0 1.06066,1.02889 1.06066,2.2981z" data-paper-data="{&quot;index&quot;:null}" fill="#231f20" fill-rule="evenodd" stroke="none" stroke-width="1" stroke-linejoin="miter"/><path d="M256.49057,198.82432c0,1.2692 -0.47487,2.29809 -1.06066,2.29809c-0.58578,0 -1.06066,-1.02889 -1.06066,-2.29809c0,-1.26921 0.47488,-2.2981 1.06066,-2.2981c0.58579,0 1.06066,1.02889 1.06066,2.2981z" data-paper-data="{&quot;index&quot;:null}" fill="#231f20" fill-rule="evenodd" stroke="none" stroke-width="1" stroke-linejoin="miter"/><path d="M257.9048,191.57646c0,1.2692 -0.47487,2.29809 -1.06066,2.29809c-0.58578,0 -1.06066,-1.02889 -1.06066,-2.29809c0,-1.26921 0.47488,-2.2981 1.06066,-2.2981c0.58579,0 1.06066,1.02889 1.06066,2.2981z" data-paper-data="{&quot;index&quot;:null}" fill="#231f20" fill-rule="evenodd" stroke="none" stroke-width="1" stroke-linejoin="miter"/><path d="M254.72281,187.33383c0,1.2692 -0.47487,2.29809 -1.06066,2.29809c-0.58578,0 -1.06066,-1.02889 -1.06066,-2.29809c0,-1.26921 0.47488,-2.2981 1.06066,-2.2981c0.58579,0 1.06066,1.02889 1.06066,2.2981z" data-paper-data="{&quot;index&quot;:null}" fill="#231f20" fill-rule="evenodd" stroke="none" stroke-width="1" stroke-linejoin="miter"/></g></g></svg>