<svg version="1.1" xmlns="http://www.w3.org/2000/svg" xmlns:xlink="http://www.w3.org/1999/xlink" width="143.03294" height="190.57181" viewBox="0,0,143.03294,190.57181"><g transform="translate(-168.78506,-85.36319)"><g data-paper-data="{&quot;isPaintingLayer&quot;:true}" fill-rule="nonzero" stroke-linecap="butt" stroke-linejoin="miter" stroke-miterlimit="10" stroke-dasharray="" stroke-dashoffset="0" style="mix-blend-mode: normal"><g data-paper-data="{&quot;index&quot;:null}"><path d="M262.12517,275.538c1.573,-0.72 7.244,0.147 8.891,-8.942c1.652,-9.119 7.823,-21.485 1.256,-33.238c-6.15,-11.008 -9.278,-15.328 -9.115,-22.097c0.162,-6.771 15.139,-22.207 19.805,-9.967c4.667,12.241 -7.162,18.416 0.814,36.018l-9.279,38.22" fill="#bb9696" stroke="none" stroke-width="1"/><path d="M274.49717,275.532c0,0 -15.682,0.257 -11.368,-0.308c4.744,-0.62 5.833,-3.249 7.162,-5.013c0.893,-1.184 0.939,1.137 0.939,1.137c0,0 0.955,-1.555 2.241,-1.31c1.285,0.244 1.771,2.424 1.771,2.424l-0.745,3.07" fill="#5f5579" stroke="none" stroke-width="1"/><path d="M284.86117,207.848c0,0 -7.814,18.74 -1.085,29.464l-9.279,38.22h-12.915c0,0 7.054,-0.384 8.465,-5.329c1.411,-4.944 4.83,-19.24 4.83,-19.24c0,0 1.953,-8.506 -2.605,-17.605c-4.558,-9.099 -9.008,-14.624 -10.31,-23.289" fill="none" stroke="#26214b" stroke-width="0.5"/><path d="M269.83117,270.815c0,0 0.303,-0.952 0.975,-0.952c0.673,0 0.489,1.3 0.489,1.3c0,0 0.975,-1.385 2.303,-1.107c1.628,0.341 1.644,2.406 1.644,2.406" fill="none" stroke="#26214b" stroke-width="0.5"/><path d="M271.29517,271.163c0,0 -0.882,3.669 -8.859,4.369" fill="none" stroke="#26214b" stroke-width="0.5"/></g><g data-paper-data="{&quot;index&quot;:null}"><path d="M197.93117,275.538c0,0 11.797,-1.622 12.278,-9.352c0.281,-4.504 1.125,-6.587 -1.542,-19.14c-1.307,-6.146 -6.07,-26.957 -6.07,-26.957l7.658,-3.406l3.581,4.712c0,0 1.683,49.639 1.439,53.701c-0.054,0.354 -17.344,0.442 -17.344,0.442" fill="#bb9696" stroke="none" stroke-width="1"/><path d="M210.87317,275.344l-12.169,0.176c0,0 5.604,-1.68 7.914,-3.173c2.505,-1.618 3.186,-4.055 3.631,-4.055c0.705,0 -0.069,2.065 -0.069,2.065c0,0 0.489,-2.065 2.443,-2.065c1.953,0 2.641,2.065 2.641,2.065l-0.023,4.922" fill="#5f5579" stroke="none" stroke-width="1"/><path d="M213.77617,222.688c0,0 1.899,44.521 1.465,52.591l-17.31,0.259c0,0 10.744,-1.614 11.938,-7.517c1.193,-5.903 0.922,-8.448 -0.272,-16.031c-1.193,-7.583 -7.325,-32.93 -7.325,-32.93" fill="none" stroke="#26214b" stroke-width="0.5"/><path d="M209.47917,269.205c0,0 0.313,-0.913 0.77,-0.913c0.456,0 0.135,1.565 0.135,1.565c0,0 0.394,-1.565 2.239,-1.565c1.845,0 2.676,1.827 2.676,1.827" fill="none" stroke="#26214b" stroke-width="0.5"/><path d="M210.38517,269.857c-1.344,4.287 -11.273,5.663 -11.273,5.663" fill="none" stroke="#26214b" stroke-width="0.5"/></g><g data-paper-data="{&quot;index&quot;:null}"><path d="M311.54617,163.978c-1.588,1.584 -11.436,9.302 -11.436,9.302l-23.199,32.781c0,0 -22.019,24.117 -41.782,22.19c-21.488,-2.096 -46.694,-4.94 -53.708,-30.619c-3.974,-10.907 1.601,-28.699 2.901,-42.934c0.218,-2.392 5.375,-36.134 5.375,-36.134l-7.734,-13.291c0,0 4.419,-2.714 9.056,-3.565c0,0 -10.479,-3.942 -9.056,-14.016l14.407,13.349l2.673,-0.211c0,0 -8.736,-7.98 -6.321,-15.022c0,0 15.547,18.132 16.577,19.533c1.032,1.402 3.067,6.276 1.072,18.869c-1.503,17.22 -5.08,36.144 2.89,36.437c6.796,0.691 50.587,0.071 73.378,0.162c22.79,0.406 24.907,3.169 24.907,3.169" fill="#d7c3bc" stroke="none" stroke-width="1"/><g stroke="none" stroke-width="1"><path d="M202.38017,103.916c-12.86,-9.638 -9.767,-17.756 -9.767,-17.756c0.434,4.453 11.938,18.023 11.938,18.023l-2.171,-0.267" fill="#bb968c"/><path d="M204.27217,103.916c0,0 -0.251,-0.229 -0.669,-0.651c-0.413,-0.425 -1.015,-1.024 -1.693,-1.784c-0.675,-0.76 -1.467,-1.648 -2.266,-2.638c-0.391,-0.503 -0.817,-1.004 -1.21,-1.547c-0.399,-0.536 -0.808,-1.079 -1.195,-1.639c-0.781,-1.112 -1.517,-2.259 -2.146,-3.371c-0.334,-0.544 -0.593,-1.108 -0.86,-1.629c-0.276,-0.516 -0.471,-1.039 -0.68,-1.505c-0.221,-0.461 -0.342,-0.919 -0.474,-1.313c-0.063,-0.197 -0.123,-0.381 -0.178,-0.552c-0.038,-0.176 -0.074,-0.337 -0.106,-0.483c-0.116,-0.582 -0.182,-0.915 -0.182,-0.915c0,0 0.111,0.32 0.304,0.88c0.046,0.139 0.099,0.293 0.155,0.461c0.072,0.163 0.151,0.338 0.235,0.526c0.173,0.372 0.339,0.802 0.58,1.246c0.237,0.445 0.46,0.942 0.767,1.434c0.296,0.496 0.59,1.027 0.933,1.558c0.331,0.536 0.681,1.084 1.052,1.634c0.36,0.555 0.741,1.11 1.134,1.658c0.76,1.111 1.572,2.189 2.322,3.206c0.762,1.01 1.465,1.961 2.095,2.755c1.25,1.601 2.082,2.669 2.082,2.669" fill="#26214b"/></g><path d="M302.28117,171.452l9.156,-7.393c-3.215,-3.006 -24.256,-3.168 -24.256,-3.168h-68.331c-8.221,0 -9.143,-1.138 -10.283,-5.687c-1.139,-4.55 1.329,-25.835 2.346,-35.178c1.018,-9.343 -0.772,-13.622 -2.279,-15.355c-1.358,-1.562 -16.002,-18.782 -16.002,-18.782c-2.513,9.459 9.605,17.765 9.605,17.765" fill="none" stroke="#26214b" stroke-width="0.5"/><g><path d="M191.01917,101.708c-11.7,-4.673 -9.097,-13.69 -9.097,-13.69c0,0 2.576,9.194 11.575,13.354z" fill="#bb968c" stroke="none" stroke-width="1"/><path d="M169.66517,120.362c0,0 -1.443,-4.912 -0.171,-5.114c3.491,-0.553 13.664,-4.475 11.894,-9.345c-0.117,-0.32 1.989,-1.422 1.989,-1.422c0,0 1.326,-0.593 1.624,-0.106c0.299,0.488 0.254,0.599 0.196,1.074c0,0 29.114,-6.059 13.63,14.685c-0.481,0.644 -1.403,1.735 -1.659,2.319c-0.383,0.874 -0.183,-1.025 -0.326,-1.025c-0.178,0 -1.063,1.117 -1.251,1.127c-0.377,0.018 -0.559,-0.6 -1.293,-0.637c-2.641,-0.134 -6.361,-0.912 -11.966,-0.206c-9.983,1.255 -10.471,0.937 -10.471,0.937c0,0 -1.803,-0.814 -2.196,-2.287" fill="#f0e1db" stroke="none" stroke-width="1"/><path d="M182.51517,104.935c3.365,-2.003 2.664,0.657 2.664,0.657c0,0 12.318,-3.358 16.985,1.517c4.666,4.874 -4.288,13.919 -4.288,13.919l-0.922,2.009l-0.108,-1.467c0,0 -2.28,2.058 -1.682,1.3c0.597,-0.759 -0.489,-0.867 -0.814,-0.921c-4.124,-0.596 -14.435,-0.433 -19.59,0.487c-2.094,0.374 -4.232,0.975 -5.266,-2.6c-1.033,-3.574 0,-4.588 0,-4.588c15.196,-3.698 11.813,-9.517 11.813,-9.517c7.303,-5.237 17.81,-4.641 17.81,-4.641" fill="none" stroke="#26214b" stroke-width="0.5"/><path d="M190.95617,101.789c-11.502,-5.161 -9.101,-14.016 -9.101,-14.016l14.407,13.349" fill="none" stroke="#26214b" stroke-width="0.5"/><path d="M193.49717,101.372c0,0 -9.241,-4.541 -11.643,-13.599" fill="none" stroke="#26214b" stroke-width="0.5"/></g><g fill="#26214b" stroke="none" stroke-width="1"><path d="M188.08217,109.546h7.204c0,0 -0.451,3.473 -3.602,3.615c-3.602,0.162 -3.602,-3.615 -3.602,-3.615"/><path d="M169.54217,119.237c-1.221,-1.828 0.145,-4.05 0.145,-4.05h6.053c-3.541,4.306 -6.198,4.05 -6.198,4.05"/><path d="M187.89217,110.466c0,0 0.01,0.329 0.089,0.801c0.04,0.235 0.1,0.507 0.196,0.783c0.037,0.142 0.112,0.274 0.163,0.417c0.078,0.13 0.131,0.277 0.227,0.396c0.16,0.262 0.377,0.48 0.601,0.659c0.104,0.101 0.233,0.16 0.342,0.237c0.11,0.081 0.231,0.122 0.339,0.171c0.11,0.04 0.205,0.103 0.301,0.125c0.093,0.03 0.174,0.055 0.242,0.076c0.136,0.046 0.213,0.073 0.213,0.073c0,0 -0.081,-0.004 -0.224,-0.011c-0.073,-0.006 -0.16,-0.012 -0.261,-0.02c-0.103,0 -0.211,-0.04 -0.332,-0.071c-0.12,-0.034 -0.256,-0.062 -0.385,-0.132c-0.129,-0.065 -0.282,-0.112 -0.405,-0.216c-0.267,-0.177 -0.518,-0.424 -0.703,-0.713c-0.104,-0.137 -0.161,-0.3 -0.242,-0.447c-0.056,-0.157 -0.119,-0.31 -0.15,-0.464c-0.084,-0.306 -0.092,-0.601 -0.105,-0.847c-0.001,-0.499 0.094,-0.817 0.094,-0.817"/></g></g><g data-paper-data="{&quot;index&quot;:null}"><path d="M300.00317,163.823c0,0 0.537,0.006 1.343,0.075c0.805,0.063 1.873,0.228 2.93,0.481c0.528,0.128 1.058,0.266 1.54,0.449c0.476,0.197 0.895,0.445 1.235,0.681c0.329,0.258 0.595,0.475 0.745,0.672c0.163,0.18 0.243,0.29 0.243,0.29l-0.042,0.05c0,0 -0.131,-0.054 -0.34,-0.158c-0.109,-0.046 -0.225,-0.122 -0.377,-0.18c-0.148,-0.065 -0.314,-0.137 -0.487,-0.223c-0.361,-0.148 -0.782,-0.321 -1.234,-0.506c-0.449,-0.19 -0.929,-0.407 -1.429,-0.576c-0.999,-0.343 -2.036,-0.583 -2.818,-0.756c-0.783,-0.163 -1.314,-0.234 -1.314,-0.234z" fill="#26214b" stroke="none" stroke-width="1"/><path d="M297.81517,165.282c0,0 0.512,0.108 1.27,0.321c0.761,0.207 1.754,0.552 2.726,0.97c0.486,0.208 0.973,0.426 1.409,0.672c0.426,0.265 0.794,0.563 1.086,0.841c0.28,0.295 0.506,0.542 0.624,0.754c0.13,0.197 0.193,0.316 0.193,0.316l-0.049,0.042c0,0 -0.119,-0.068 -0.308,-0.197c-0.099,-0.061 -0.203,-0.146 -0.342,-0.224c-0.131,-0.084 -0.279,-0.178 -0.44,-0.282c-0.168,-0.095 -0.345,-0.201 -0.527,-0.319c-0.193,-0.105 -0.39,-0.224 -0.589,-0.352c-0.406,-0.25 -0.832,-0.539 -1.286,-0.784c-0.903,-0.498 -1.855,-0.913 -2.572,-1.223c-0.72,-0.302 -1.213,-0.472 -1.213,-0.472z" fill="#26214b" stroke="none" stroke-width="1"/><path d="M276.80317,206.548c-22.791,20.636 -32.558,26.729 -67.151,17.549c-34.593,-9.181 -29.465,-41.596 -29.465,-41.596l8.846,-60.888" fill="none" stroke="#26214b" stroke-width="0.5"/></g><g data-paper-data="{&quot;index&quot;:null}"><path d="M279.85317,275.766c0,0 7.936,-0.116 8.791,-6.175c0.759,-5.389 7.225,-23.605 3.012,-31.839c-3.799,-7.428 -6.26,-8.347 -12.266,-23.712c-2.928,-7.492 -6.32,-18.893 -4.584,-27.83c1.737,-8.936 18.008,-25.773 24.28,-18.438c6.271,7.335 10.324,15.982 6.289,30.128c-4.034,14.145 -10.491,27.685 -3.383,38.626l-9.197,39.24h-12.942" fill="#d7c3bc" stroke="none" stroke-width="1"/><path d="M292.59417,275.685c0,0 -13.24,0.18 -11.884,-0.109c1.356,-0.288 3.348,-0.704 5.41,-2.229c2.062,-1.525 1.446,-3.127 2.748,-3.127c1.303,0 0.749,1.4 0.749,1.4c0,0 0.223,-1.401 1.845,-1.408c1.539,-0.009 2.027,1.682 2.027,1.682l-0.895,3.791" fill="#5f5579" stroke="none" stroke-width="1"/><path d="M297.55917,166.496c0,0 9.198,6.987 9.198,20.635c0,13.649 -8.466,23.479 -8.059,39.809c0,0 0.163,6.174 3.093,9.505l-9.197,39.24h-12.942c0,0 7.325,-0.081 8.791,-6.175c1.465,-6.093 3.5,-15.842 3.5,-15.842c0,0 2.767,-11.211 -1.384,-17.71c-4.68,-7.326 -13.675,-21.773 -16.279,-41.352" fill="none" stroke="#26214b" stroke-width="0.5"/><path d="M293.36017,272.694c0.04,-0.511 -0.03,-1.036 -0.281,-1.449c-0.244,-0.417 -0.672,-0.666 -1.14,-0.76c-0.116,-0.028 -0.236,-0.045 -0.357,-0.057c-0.056,-0.003 -0.131,-0.016 -0.171,-0.011l-0.193,0.002c-0.121,0.015 -0.213,0.017 -0.325,0.053c-0.108,0.024 -0.209,0.069 -0.306,0.12c-0.192,0.104 -0.351,0.263 -0.48,0.449c-0.127,0.182 -0.228,0.412 -0.276,0.617l-0.422,-0.102c0.074,-0.24 0.122,-0.524 0.087,-0.759c-0.028,-0.243 -0.152,-0.396 -0.402,-0.431c-0.059,-0.009 -0.114,-0.01 -0.196,-0.009c-0.078,-0.004 -0.123,0.013 -0.19,0.016c-0.124,0.03 -0.247,0.073 -0.355,0.149c-0.22,0.151 -0.364,0.412 -0.438,0.692c-0.003,-0.291 0.099,-0.597 0.322,-0.825c0.113,-0.112 0.253,-0.199 0.407,-0.253c0.076,-0.019 0.17,-0.049 0.237,-0.054c0.063,-0.009 0.153,-0.021 0.239,-0.018c0.166,0.005 0.356,0.059 0.501,0.19c0.143,0.131 0.222,0.309 0.255,0.474c0.064,0.337 0.025,0.64 -0.051,0.956l-0.422,-0.103c0.063,-0.297 0.171,-0.547 0.331,-0.792c0.155,-0.241 0.377,-0.451 0.64,-0.589c0.131,-0.066 0.269,-0.124 0.413,-0.154c0.134,-0.043 0.305,-0.046 0.439,-0.051l0.193,0.009c0.089,0.002 0.141,0.016 0.213,0.024c0.135,0.019 0.27,0.045 0.403,0.084c0.527,0.142 1.044,0.501 1.264,1.021c0.217,0.509 0.21,1.068 0.061,1.561" fill="#26214b" stroke="none" stroke-width="1"/><path d="M289.61717,271.62c-1.174,4.065 -9.423,4.065 -9.423,4.065" fill="none" stroke="#26214b" stroke-width="0.5"/></g><g data-paper-data="{&quot;index&quot;:null}"><path d="M228.94317,226.243l2.197,49.442c-2.604,0.108 -13.828,-0.222 -13.828,-0.222c9.148,-3.001 9.152,-12.258 8.665,-15.615c-0.488,-3.358 -7.86,-35.241 -7.86,-35.241z" fill="#d7c3bc" stroke="none" stroke-width="1"/><path d="M231.14017,275.685c0,0 -17.611,0.624 -13.262,-0.554c4.553,-1.234 6.499,-5.793 7.313,-5.835c1.758,-0.091 0.876,1.302 0.876,1.302c0,0 -0.006,-1.112 1.89,-1.335c1.897,-0.222 2.95,1.9 2.95,1.9l0.233,4.522" fill="#5f5579" stroke="none" stroke-width="1"/><path d="M229.03117,227.92l2.109,47.765h-15.383c12.697,-2.438 10.181,-16.087 10.181,-16.087l-7.34,-33.356" fill="none" stroke="#26214b" stroke-width="0.5"/><path d="M224.37717,269.862c0,0 0.5,-0.59 0.987,-0.59c1.303,0 0.893,0.591 0.893,0.591c0,0 0.139,-0.685 2.036,-0.591c2.57,0.128 2.66,2.177 2.66,2.177" fill="none" stroke="#26214b" stroke-width="0.5"/><path d="M226.25717,269.857c-0.923,5.362 -9.811,5.675 -9.811,5.675" fill="none" stroke="#26214b" stroke-width="0.5"/></g><g data-paper-data="{&quot;index&quot;:null}" fill="#26214b" stroke="none" stroke-width="1"><path d="M234.65017,228.477c0,0 -0.053,-0.01 -0.153,-0.028c-0.105,-0.018 -0.243,-0.055 -0.424,-0.103c-0.177,-0.053 -0.391,-0.117 -0.63,-0.21c-0.242,-0.083 -0.501,-0.208 -0.787,-0.336c-0.561,-0.275 -1.192,-0.642 -1.82,-1.1c-0.315,-0.228 -0.623,-0.484 -0.936,-0.744c-0.293,-0.282 -0.614,-0.542 -0.891,-0.849c-0.278,-0.305 -0.577,-0.589 -0.823,-0.911c-0.25,-0.32 -0.523,-0.611 -0.735,-0.933c-0.222,-0.315 -0.436,-0.619 -0.639,-0.907c-0.183,-0.301 -0.356,-0.585 -0.517,-0.848c-0.335,-0.516 -0.536,-0.99 -0.714,-1.3c-0.166,-0.318 -0.26,-0.499 -0.26,-0.499c0,0 0.101,0.178 0.278,0.49c0.188,0.304 0.405,0.769 0.757,1.271c0.168,0.257 0.351,0.533 0.544,0.826c0.212,0.279 0.435,0.574 0.665,0.879c0.221,0.313 0.504,0.592 0.761,0.899c0.254,0.31 0.56,0.581 0.844,0.871c0.282,0.293 0.608,0.538 0.905,0.805c0.314,0.244 0.626,0.484 0.939,0.696c0.629,0.425 1.253,0.759 1.803,1.006c0.279,0.112 0.532,0.225 0.765,0.294c0.23,0.081 0.435,0.135 0.602,0.179c0.168,0.038 0.304,0.069 0.388,0.081c0.09,0.013 0.138,0.02 0.138,0.02z"/><path d="M242.15117,227.995c0,0 -0.054,-0.001 -0.155,-0.002c-0.107,-0.001 -0.249,-0.015 -0.435,-0.032c-0.184,-0.024 -0.406,-0.052 -0.656,-0.106c-0.253,-0.041 -0.529,-0.123 -0.831,-0.202c-0.6,-0.181 -1.282,-0.439 -1.977,-0.788c-0.347,-0.174 -0.694,-0.376 -1.045,-0.582c-0.335,-0.231 -0.694,-0.435 -1.018,-0.693c-0.324,-0.255 -0.666,-0.487 -0.961,-0.764c-0.298,-0.274 -0.616,-0.517 -0.878,-0.8c-0.27,-0.275 -0.531,-0.54 -0.778,-0.792c-0.231,-0.266 -0.448,-0.518 -0.649,-0.751c-0.415,-0.454 -0.692,-0.889 -0.917,-1.167c-0.216,-0.286 -0.339,-0.449 -0.339,-0.449c0,0 0.129,0.159 0.354,0.438c0.236,0.269 0.526,0.692 0.956,1.131c0.207,0.224 0.433,0.468 0.672,0.725c0.254,0.242 0.523,0.496 0.8,0.76c0.269,0.272 0.593,0.501 0.897,0.762c0.301,0.265 0.648,0.482 0.975,0.722c0.327,0.242 0.688,0.431 1.025,0.646c0.35,0.19 0.697,0.376 1.041,0.534c0.69,0.317 1.36,0.544 1.943,0.698c0.293,0.065 0.562,0.135 0.803,0.166c0.24,0.043 0.451,0.061 0.623,0.078c0.172,0.01 0.311,0.019 0.396,0.016c0.09,-0.002 0.139,-0.002 0.139,-0.002z"/><path d="M248.13717,226.605c0,0 -0.733,0.031 -1.795,-0.095c-0.533,-0.058 -1.149,-0.163 -1.802,-0.306c-0.65,-0.154 -1.341,-0.332 -2.007,-0.583c-0.339,-0.11 -0.664,-0.253 -0.987,-0.387c-0.327,-0.125 -0.629,-0.294 -0.929,-0.435c-0.303,-0.138 -0.574,-0.315 -0.84,-0.462c-0.268,-0.144 -0.507,-0.305 -0.725,-0.455c-0.449,-0.286 -0.794,-0.562 -1.035,-0.755c-0.243,-0.191 -0.382,-0.301 -0.382,-0.301c0,0 0.144,0.104 0.394,0.285c0.248,0.184 0.603,0.445 1.06,0.71c0.224,0.141 0.468,0.291 0.74,0.425c0.27,0.135 0.544,0.299 0.85,0.423c0.305,0.129 0.608,0.283 0.936,0.394c0.325,0.119 0.651,0.248 0.99,0.342c0.666,0.221 1.354,0.369 1.997,0.495c0.646,0.114 1.254,0.192 1.776,0.227c1.049,0.082 1.733,0.024 1.733,0.024z"/><path d="M212.50717,225.049c0,0 -0.052,-0.012 -0.15,-0.034c-0.106,-0.024 -0.242,-0.067 -0.42,-0.124c-0.174,-0.061 -0.385,-0.136 -0.618,-0.24c-0.239,-0.094 -0.491,-0.232 -0.771,-0.373c-0.548,-0.301 -1.16,-0.698 -1.766,-1.185c-0.302,-0.243 -0.599,-0.513 -0.899,-0.788c-0.279,-0.296 -0.588,-0.571 -0.849,-0.89c-0.263,-0.318 -0.548,-0.617 -0.779,-0.951c-0.234,-0.33 -0.493,-0.634 -0.689,-0.966c-0.207,-0.325 -0.405,-0.639 -0.594,-0.937c-0.169,-0.309 -0.329,-0.601 -0.476,-0.871c-0.31,-0.531 -0.489,-1.014 -0.651,-1.333c-0.151,-0.325 -0.237,-0.51 -0.237,-0.51c0,0 0.093,0.182 0.255,0.501c0.172,0.314 0.367,0.789 0.695,1.308c0.156,0.263 0.325,0.549 0.504,0.85c0.198,0.289 0.406,0.595 0.622,0.91c0.206,0.323 0.475,0.615 0.717,0.934c0.238,0.322 0.531,0.607 0.801,0.911c0.268,0.306 0.582,0.566 0.865,0.846c0.303,0.259 0.603,0.514 0.906,0.741c0.608,0.454 1.215,0.817 1.752,1.09c0.274,0.126 0.521,0.25 0.751,0.331c0.226,0.092 0.427,0.155 0.593,0.207c0.165,0.046 0.299,0.084 0.383,0.099c0.089,0.017 0.136,0.027 0.136,0.027z"/><path d="M204.39717,222.642c0,0 -0.067,-0.022 -0.192,-0.063c-0.132,-0.045 -0.303,-0.117 -0.526,-0.217c-0.443,-0.197 -1.039,-0.541 -1.708,-1.014c-0.331,-0.241 -0.682,-0.511 -1.029,-0.826c-0.365,-0.294 -0.691,-0.665 -1.059,-1.016c-0.328,-0.388 -0.697,-0.765 -1.013,-1.194c-0.319,-0.427 -0.661,-0.847 -0.942,-1.31c-0.297,-0.451 -0.594,-0.902 -0.839,-1.374c-0.257,-0.464 -0.522,-0.914 -0.725,-1.378c-0.21,-0.458 -0.434,-0.893 -0.609,-1.321c-0.17,-0.43 -0.331,-0.836 -0.479,-1.211c-0.308,-0.747 -0.473,-1.401 -0.632,-1.843c-0.145,-0.447 -0.228,-0.703 -0.228,-0.703c0,0 0.09,0.254 0.247,0.697c0.17,0.438 0.352,1.086 0.679,1.823c0.158,0.369 0.329,0.77 0.509,1.195c0.186,0.421 0.421,0.848 0.642,1.298c0.213,0.456 0.489,0.896 0.756,1.35c0.256,0.462 0.563,0.9 0.867,1.339c0.291,0.45 0.639,0.856 0.963,1.269c0.324,0.414 0.696,0.775 1.029,1.147c0.369,0.335 0.698,0.69 1.062,0.967c0.347,0.298 0.694,0.552 1.022,0.776c0.66,0.442 1.242,0.757 1.664,0.931c0.209,0.087 0.381,0.154 0.489,0.187c0.114,0.034 0.175,0.053 0.175,0.053z"/><path d="M192.78717,216.12c0,0 -0.068,-0.049 -0.195,-0.142c-0.131,-0.097 -0.3,-0.243 -0.518,-0.436c-0.212,-0.195 -0.465,-0.436 -0.734,-0.732c-0.276,-0.289 -0.559,-0.639 -0.862,-1.023c-0.294,-0.393 -0.609,-0.819 -0.901,-1.297c-0.317,-0.463 -0.578,-0.994 -0.878,-1.523c-0.264,-0.549 -0.545,-1.114 -0.784,-1.705c-0.221,-0.599 -0.489,-1.191 -0.663,-1.817c-0.191,-0.619 -0.401,-1.232 -0.532,-1.856c-0.142,-0.621 -0.316,-1.224 -0.401,-1.825c-0.098,-0.598 -0.211,-1.174 -0.286,-1.723c-0.06,-0.552 -0.116,-1.073 -0.168,-1.555c-0.062,-0.48 -0.089,-0.924 -0.1,-1.317c-0.019,-0.392 -0.034,-0.735 -0.047,-1.017c-0.027,-0.563 -0.041,-0.886 -0.041,-0.886c0,0 0.022,0.322 0.061,0.885c0.019,0.282 0.042,0.624 0.069,1.016c0.02,0.392 0.057,0.833 0.129,1.312c0.062,0.478 0.13,0.997 0.201,1.547c0.088,0.546 0.213,1.116 0.324,1.709c0.098,0.597 0.284,1.193 0.438,1.807c0.144,0.617 0.366,1.221 0.568,1.831c0.186,0.615 0.465,1.196 0.696,1.783c0.25,0.58 0.54,1.13 0.811,1.665c0.307,0.516 0.575,1.032 0.897,1.478c0.296,0.464 0.614,0.874 0.909,1.25c0.304,0.368 0.588,0.703 0.86,0.977c0.268,0.281 0.516,0.508 0.724,0.691c0.209,0.177 0.38,0.317 0.494,0.397c0.119,0.084 0.183,0.128 0.183,0.128z"/><path d="M183.23617,203.217c0,0 -0.109,-0.311 -0.262,-0.869c-0.142,-0.559 -0.359,-1.359 -0.511,-2.339c-0.092,-0.489 -0.147,-1.023 -0.226,-1.586c-0.049,-0.566 -0.127,-1.163 -0.144,-1.784c-0.026,-0.62 -0.054,-1.261 -0.037,-1.912c-0.007,-0.653 0.03,-1.314 0.072,-1.976c0.028,-0.662 0.138,-1.317 0.209,-1.965c0.069,-0.649 0.215,-1.275 0.315,-1.887c0.096,-0.615 0.28,-1.188 0.409,-1.742c0.127,-0.555 0.303,-1.063 0.456,-1.535c0.157,-0.471 0.281,-0.909 0.44,-1.279c0.155,-0.372 0.29,-0.696 0.4,-0.964c0.221,-0.533 0.347,-0.837 0.347,-0.837c0,0 -0.107,0.311 -0.296,0.857c-0.094,0.272 -0.209,0.603 -0.34,0.983c-0.134,0.377 -0.231,0.821 -0.376,1.292c-0.135,0.474 -0.293,0.985 -0.399,1.54c-0.11,0.554 -0.27,1.128 -0.364,1.737c-0.091,0.609 -0.23,1.231 -0.291,1.875c-0.063,0.642 -0.164,1.292 -0.185,1.949c-0.049,0.654 -0.094,1.309 -0.094,1.955c-0.024,0.647 -0.003,1.282 0.016,1.897c0.046,1.23 0.132,2.378 0.268,3.354c0.241,1.96 0.593,3.236 0.593,3.236"/><path d="M186.65817,161.419c0,0 -0.132,0.364 -0.364,1.002c-0.113,0.319 -0.251,0.706 -0.41,1.151c-0.155,0.446 -0.325,0.951 -0.555,1.484c-0.851,2.157 -1.915,5.063 -2.828,8.018c-0.238,0.735 -0.438,1.481 -0.651,2.211c-0.213,0.73 -0.382,1.46 -0.567,2.16c-0.173,0.703 -0.311,1.388 -0.458,2.035c-0.131,0.65 -0.23,1.269 -0.334,1.838c-0.084,0.571 -0.157,1.095 -0.25,1.557c-0.094,0.464 -0.133,0.871 -0.167,1.207c-0.074,0.674 -0.116,1.06 -0.116,1.06c0,0 0.001,-0.388 0.004,-1.067c0,-0.34 -0.005,-0.754 0.04,-1.226c0.036,-0.471 0.054,-1.01 0.168,-1.582c0.104,-0.573 0.205,-1.197 0.336,-1.852c0.147,-0.65 0.287,-1.341 0.461,-2.047c0.186,-0.703 0.356,-1.436 0.569,-2.17c0.215,-0.733 0.414,-1.483 0.655,-2.22c0.915,-2.965 1.982,-5.878 2.836,-8.041c0.203,-0.546 0.419,-1.034 0.627,-1.459c0.203,-0.426 0.381,-0.799 0.526,-1.105c0.304,-0.607 0.478,-0.954 0.478,-0.954"/></g></g></g></svg>