<svg version="1.1" xmlns="http://www.w3.org/2000/svg" xmlns:xlink="http://www.w3.org/1999/xlink" width="182.62869" height="179.88653" viewBox="0,0,182.62869,179.88653"><g transform="translate(-148.60425,-90.30547)"><g data-paper-data="{&quot;isPaintingLayer&quot;:true}" fill-rule="evenodd" stroke-linecap="butt" stroke-linejoin="miter" stroke-miterlimit="10" stroke-dasharray="" stroke-dashoffset="0" style="mix-blend-mode: normal"><g data-paper-data="{&quot;index&quot;:null}"><path d="M182.2812,209.1188c0,0 -17.0734,-8.7572 -18.213,-9.5696c-1.1395,-0.8124 -3.3964,-1.8042 -3.4394,-1.5462c-0.1407,0.8365 -5.3708,28.3533 -4.7333,31.6842l9.9849,-0.583c0,0 3.1471,11.8483 2.1716,10.5958c-0.9754,-1.253 -6.9335,-3.7449 -15.6923,-3.7449c-4.1545,0 -3.4551,-6.0924 -3.4551,-6.0924c0,0 2.4835,-40.2217 2.8091,-42.9839c0.3256,-2.7623 2.242,-3.3803 2.242,-3.3803l23.5232,7.2331z" fill="#bb9696" stroke="none" stroke-width="1"/><path d="M152.3595,235.9552c0,0 -1.8629,-2.7882 0.8941,-5.2417c1.2287,-1.0938 10.3255,-1.4351 12.4587,-1.5962c0.168,-0.013 1.3889,2.5334 2.5551,10.6056c0,0 -1.4651,-1.6541 -7.2982,-2.8188c-3.5488,-0.7084 -4.8752,-0.5401 -8.6097,-0.9489" fill="#5f5579" stroke="none" stroke-width="1"/><path d="M160.9964,195.7412c0,0.325 -2.985,17.3318 -3.9617,22.6391c-0.9768,5.3074 -1.1389,11.4824 -1.1389,11.4824l9.9843,-0.7585c1.2483,2.4918 2.4418,10.9949 2.4418,10.9949c-1.3563,-2.7622 -11.2325,-3.8456 -15.6826,-4.116c-4.45,-0.2704 -3.7441,-5.9579 -3.7441,-5.9579c0,0 2.1182,-36.4099 2.7133,-42.3542c0.5425,-5.4159 3.5274,-4.0075 3.5274,-4.0075l21.7052,6.9322" fill="none" stroke="#26214b" stroke-width="0.5"/><path d="M160.6721,197.745l20.9987,11.1574" fill="none" stroke="#26214b" stroke-width="0.5"/><path d="M152.3595,235.9552c0,0 -2.7583,-5.28 3.5365,-6.0925" fill="none" stroke="#26214b" stroke-width="0.5"/></g><g data-paper-data="{&quot;index&quot;:null}"><path d="M314.8622,269.5244c0.0547,-2.1935 -5.1631,-7.5399 -7.3478,-9.7711c-1.5426,-1.5761 -2.5291,-2.3956 -1.6214,-5.6472c0.6382,-2.2865 8.29,-26.2203 9.9179,-30.0926c1.6279,-3.8723 -6.1046,-2.356 -17.9343,-7.5008c-11.8297,-5.1449 3.584,-29.3692 8.2209,-19.5799c4.9384,10.4256 14.0274,12.8635 21.2982,13.0305c2.2999,0.0533 3.5873,-0.3835 3.5261,2.4866c-0.0462,2.1682 -13.2609,29.1047 -14.0944,31.6472c-0.6577,2.0057 -3.9995,9.7054 -3.8933,9.8679c1.288,1.9693 9.5187,5.8949 9.279,6.0658c-1.7086,1.2187 -7.3509,9.4936 -7.3509,9.4936" fill="#bb9696" stroke="none" stroke-width="1"/><path d="M308.6278,200.9946c0,0 4.3328,6.4077 11.3061,7.8538c7.0541,1.4624 9.8762,1.1374 9.8762,1.1374c0,0 2.8762,0.0539 -0.3796,6.5533c-3.2558,6.4993 -15.6826,33.6885 -16.4966,37.4257c-0.2168,0.7038 9.2791,6.0658 9.2791,6.0658c0,0 -5.7517,6.0118 -7.3256,9.9114c0,0 0.5431,-2.5457 -7.868,-10.6699c-2.279,-2.1123 -1.357,-3.9542 -1.0855,-5.3619c0.2716,-1.4078 9.8222,-30.1673 9.8222,-30.1673c0,0 -0.2169,-2.4912 -9.1163,-5.5244" fill="none" stroke="#26214b" stroke-width="0.5"/><path d="M308.0595,260.293c-0.9683,-0.7396 -1.3115,-2.8896 0.2891,-4.8394c1.6005,-1.9498 5.5375,-0.5362 5.5375,-0.5362" fill="none" stroke="#26214b" stroke-width="0.5"/><path d="M307.2409,259.1915c0,0 -0.1934,-4.387 3.3229,-4.7484c3.0285,-0.3107 4.9976,1.723 7.0866,2.9149c2.0889,1.192 4.5607,2.6713 4.4468,2.7948c-6.3411,6.8918 -6.7754,9.1322 -7.0287,9.3713c-0.2891,0.2737 -0.5333,-1.6397 -2.3318,-3.9561c-1.2463,-1.606 -3.9981,-4.5157 -5.4958,-6.3765" fill="#5f5579" stroke="none" stroke-width="1"/></g><g data-paper-data="{&quot;index&quot;:null}"><path d="M224.4898,104.7577c0,0 1.0966,-14.7248 13.7102,-14.1561l-10.0116,14.0814z" fill="#d7c3bc" stroke="none" stroke-width="1"/><path d="M213.2013,125.6298c0,0 1.1395,-5.7954 -0.868,-9.695c-2.0076,-3.8996 -1.9027,-8.1502 -1.9027,-8.1502c0,0 5.124,-2.6101 12.7517,-2.885c6.8717,-0.247 6.3013,-0.4998 6.3013,-0.4998c0,0 12.094,-14.6515 21.8621,-11.5643c0,0 -13.6607,10.5218 -17.8366,13.4998c0,0 6.4576,5.3346 5.249,13.3535c-1.2867,8.5407 -6.4719,16.776 -11.7665,24.7806c-5.6521,8.5453 -9.9556,17.1029 -9.9556,17.1029c0,0 3.9453,2.0226 12.7458,3.7307c17.5814,3.4121 47.5349,-3.3017 53.8935,-2.772c10.1751,0.8488 26.0335,8.7975 27.8782,10.3138c0,0 -0.627,6.1067 -11.2729,5.0161c0,0 6.1978,11.9763 8.3577,23.51c2.1605,11.5337 0.3106,15.0193 0.3106,15.0193l-30.6047,5.1585c0,0 -11.2794,9.6567 -40.4294,10.3723c-21.5287,0.5278 -52.8796,-5.2521 -60.5457,-28.3923c-7.745,-23.3754 10.2532,-44.9187 15.9417,-51.3323c11.9378,-13.4588 19.8905,-26.5666 19.8905,-26.5666" fill="#d7c3bc" stroke="none" stroke-width="1"/><path d="M224.5089,104.6054c0,0 0.6883,-7.2968 4.6766,-10.876c3.7957,-3.4076 8.6885,-3.1281 8.6885,-3.1281c0,0 -10.4186,3.8385 -12.2542,13.9118z" fill="#bb968c" stroke="none" stroke-width="1"/><path d="M229.4905,104.8999c-0.3255,-0.3048 10.724,-14.3141 21.7066,-12.1024c0,0 -3.5554,-0.1859 -21.7066,12.1024" fill="#bb968c" stroke="none" stroke-width="1"/><path d="M229.5859,105.2921c0,0 15.9789,-11.7391 21.5014,-12.2603" fill="none" stroke="#26214b" stroke-width="0.5"/><path d="M197.1257,118.1347c0,0 8.8284,-1.6307 11.2501,-6.3778c1.1571,-2.267 -1.9001,-1.903 2.2999,-3.9997c3.2011,-1.5982 1.878,0.6525 1.0035,0.9476c-0.8752,0.2951 11.6994,-1.2732 15.4592,1.0191c3.11,1.8965 4.4553,7.3468 -1.5524,13.5608c-4.7534,4.9161 -2.8325,1.5482 -2.8325,1.5482l-0.9273,0.9593c0,0 -12.2093,-1.2999 -18.144,-0.3848c-5.8129,0.8969 -7.0482,0.6213 -7.2513,-0.2723c-0.2038,-0.8937 -2.6014,-6.3915 0.6948,-7.0004" fill="#f0e1db" stroke="none" stroke-width="1"/><path d="M209.7115,108.3317c0,0 2.3468,-1.3596 2.9439,-1.0893c0.5971,0.2704 -0.9768,1.4624 -0.9768,1.4624c0,0 12.643,-1.3545 15.9535,1.3538c3.3105,2.7083 2.171,6.5539 1.0855,9.0451c-1.0855,2.4912 -6.4029,7.5282 -6.4029,7.5282l0.4884,-2.0038c0,0 -0.3783,1.2258 -1.4658,1.0828c0,0 -8.4104,-1.3544 -20.9453,0c-1.4651,0.1086 -3.5814,1.0289 -4.1785,-1.2999c-0.5971,-2.3287 -0.9227,-4.6034 -0.7599,-4.7659c0.1628,-0.1625 -0.2709,-1.2999 2.3338,-1.6248c2.6046,-0.325 12.3838,-3.8457 10.5872,-8.5577c0,0 3.7384,-5.0909 21.0482,-4.7659c0,0 11.5041,-14.6235 21.9227,-11.8613l-17.9616,13.5946c0,0 -1.682,1.2453 -0.4884,2.3827" fill="none" stroke="#26214b" stroke-width="0.5"/><path d="M214.4464,113.1998c0,0 7.1081,0.2717 7.6512,0.2171c0,0 -0.9227,4.0075 -3.8256,3.6286c-0.2982,-0.1085 -2.8488,0.3243 -3.8256,-3.8457" fill="#26214b" stroke="none" stroke-width="1"/><path d="M196.1051,118.9953h6.2408c0,0 -3.4734,3.9542 -5.9693,3.8456c-1.174,0.002 -0.5678,-0.1904 -0.5678,-0.1904c0,0 -0.6368,-2.7986 -0.2806,-3.3504c0.224,-0.3471 0.5769,-0.3048 0.5769,-0.3048" fill="#26214b" stroke="none" stroke-width="1"/><path d="M214.0121,113.7146c0,0 0.0182,0.3224 0.082,0.7897c0.03,0.2339 0.0821,0.5037 0.1524,0.7851c0.03,0.1423 0.0768,0.284 0.1224,0.4276c0.0371,0.1476 0.1081,0.2834 0.1622,0.4251c0.0651,0.1358 0.1308,0.2736 0.2083,0.4003c0.0905,0.1157 0.1511,0.2548 0.254,0.3523c0.0951,0.1027 0.1765,0.2164 0.2813,0.2938c0.1003,0.0838 0.1882,0.1748 0.2924,0.2255c0.0996,0.0572 0.1881,0.1189 0.2695,0.1696c0.0879,0.0384 0.1641,0.0715 0.2273,0.0988c0.1276,0.0598 0.2006,0.0943 0.2006,0.0943c0,0 -0.0795,-0.0124 -0.2188,-0.0338c-0.142,-0.0195 -0.3438,-0.0579 -0.5678,-0.169c-0.1199,-0.0397 -0.2273,-0.1222 -0.3491,-0.1982c-0.1276,-0.0715 -0.2357,-0.1781 -0.3477,-0.2899c-0.1211,-0.104 -0.2064,-0.2437 -0.3067,-0.3757c-0.0899,-0.1378 -0.166,-0.2872 -0.2403,-0.4361c-0.125,-0.3074 -0.2285,-0.6233 -0.2676,-0.9281c-0.054,-0.3028 -0.0527,-0.5895 -0.054,-0.8319c0.0136,-0.4868 0.0996,-0.7994 0.0996,-0.7994" fill="#26214b" stroke="none" stroke-width="1"/><path d="M224.4896,104.7576c1.9535,-15.7609 13.7103,-14.1562 13.7103,-14.1562l-10.0117,14.0814" fill="none" stroke="#26214b" stroke-width="0.5"/><path d="M225.5862,104.7576c0,0 1.0151,-9.9317 12.6137,-14.1562" fill="none" stroke="#26214b" stroke-width="0.5"/><path d="M233.3842,106.4302c0,0 6.7284,5.3346 5.4261,13.9462c-1.3023,8.6116 -9.4803,21.204 -13.6744,27.2971c-4.1941,6.0932 -8.8721,15.7609 -9.5233,17.6295" fill="none" stroke="#26214b" stroke-width="0.5"/><path d="M217.1413,161.8705c0,0 11.5757,4.4072 23.6223,4.4072c12.0465,0 39.1922,-3.2496 39.1922,-3.2496c0,0 3.203,-0.5265 5.1363,-0.1671c4.3869,0.817 24.7293,18.2027 24.6948,51.6742" fill="none" stroke="#26214b" stroke-width="0.5"/><path d="M282.557,162.7595c12.4489,0.4081 29.1024,10.3833 29.1024,10.3833c-1.9945,5.9306 -11.8525,4.9849 -11.5425,4.9297" fill="none" stroke="#26214b" stroke-width="0.5"/><path d="M304.8518,178.0471c0,0 -0.0397,-0.0956 -0.1087,-0.2626c-0.0879,-0.141 -0.2129,-0.3431 -0.3634,-0.5856c-0.1295,-0.2508 -0.3965,-0.5232 -0.6231,-0.8273c-0.241,-0.3023 -0.4982,-0.624 -0.7554,-0.9463c-1.1421,-1.2076 -2.2836,-2.4145 -2.2836,-2.4145l2.5187,2.1896c0.293,0.3009 0.586,0.6018 0.8602,0.8839c0.2689,0.297 0.5463,0.5212 0.7384,0.8079c0.2012,0.2723 0.3686,0.4998 0.4858,0.6583c0.0866,0.1619 0.1354,0.2542 0.1354,0.2542z" fill="#26214b" stroke="none" stroke-width="1"/><path d="M309.2751,176.0973c0,0 -0.054,-0.0884 -0.1478,-0.2424c-0.1087,-0.1261 -0.2631,-0.3061 -0.4486,-0.5226c-0.1674,-0.2281 -0.4734,-0.4562 -0.7437,-0.7221c-0.2845,-0.2612 -0.5886,-0.54 -0.8921,-0.8195c-1.3134,-1.0172 -2.6274,-2.0356 -2.6274,-2.0356l2.8247,1.7776c0.336,0.2521 0.672,0.505 0.9872,0.7415c0.3106,0.2522 0.6193,0.4309 0.853,0.6844c0.2409,0.2385 0.4415,0.4381 0.5822,0.5772c0.1094,0.1462 0.1719,0.23 0.1719,0.23z" fill="#26214b" stroke="none" stroke-width="1"/><path d="M278.4499,221.8471c0,0 -15.1396,10.0739 -42,10.0739c-26.8605,0 -56.5698,-8.6116 -60.5582,-34.3652c-2.6046,-22.0977 11.3902,-38.045 13.9186,-41.1894c1.5993,-1.9466 22.0595,-25.6749 23.4425,-31.2383" fill="none" stroke="#26214b" stroke-width="0.5"/><path d="M263.2842,228.4746c0,0 -1.359,0.3419 -3.4225,0.607c-0.5177,0.0514 -1.0757,0.1365 -1.6709,0.171c-0.5945,0.0494 -1.2216,0.0942 -1.8721,0.1066c-0.6492,0.0357 -1.3225,0.0175 -2.0043,0.0091c-0.683,-0.0039 -1.3746,-0.08 -2.0655,-0.1177c-0.6882,-0.089 -1.3785,-0.1599 -2.0505,-0.2788c-0.6648,-0.1521 -1.3342,-0.2372 -1.9541,-0.4348c-0.3119,-0.0916 -0.618,-0.1813 -0.9181,-0.2691c-0.1498,-0.0442 -0.2983,-0.0877 -0.4441,-0.1313c-0.142,-0.0558 -0.282,-0.1124 -0.42,-0.1676c-0.547,-0.2347 -1.0875,-0.4023 -1.5426,-0.6526c-0.4572,-0.245 -0.8765,-0.4699 -1.2477,-0.6687c-0.3646,-0.21 -0.6498,-0.4459 -0.9012,-0.6136c-0.4929,-0.3483 -0.7742,-0.5479 -0.7742,-0.5479c0,0 0.2852,0.1937 0.7859,0.5323c0.254,0.1619 0.5431,0.3906 0.9104,0.5934c0.3744,0.1904 0.797,0.4056 1.2574,0.6395c0.4571,0.2405 1.0002,0.3965 1.5478,0.6181c0.1387,0.052 0.278,0.1047 0.42,0.1586c0.1471,0.0403 0.295,0.0806 0.4447,0.1209c0.3002,0.0812 0.6056,0.1644 0.9175,0.2483c0.6186,0.1839 1.2867,0.2547 1.9489,0.3912c0.6688,0.1053 1.3558,0.1606 2.0388,0.236c0.6877,0.0221 1.3733,0.0844 2.0505,0.074c0.6773,-0.0065 1.3434,-0.0013 1.9867,-0.05c0.644,-0.0253 1.2653,-0.0819 1.8526,-0.1436c0.5887,-0.0468 1.1402,-0.143 1.652,-0.2035c2.0433,-0.3061 3.3613,-0.6674 3.3613,-0.6674z" fill="#26214b" stroke="none" stroke-width="1"/><path d="M241.1097,232.0722c0,0 -1.402,0.0083 -3.4687,-0.2263c-0.5151,-0.0734 -1.0771,-0.1235 -1.6644,-0.2314c-0.5887,-0.0936 -1.2079,-0.2001 -1.8435,-0.3418c-0.6387,-0.1209 -1.2873,-0.299 -1.9482,-0.4693c-0.6623,-0.1664 -1.3154,-0.4055 -1.9776,-0.6064c-0.646,-0.2509 -1.3004,-0.4835 -1.9236,-0.7597c-0.6101,-0.3049 -1.2398,-0.5473 -1.7946,-0.8872c-0.2806,-0.1631 -0.5574,-0.3237 -0.8269,-0.4803c-0.1355,-0.078 -0.269,-0.156 -0.4005,-0.2327c-0.1237,-0.089 -0.2468,-0.1768 -0.3673,-0.2639c-0.4753,-0.3581 -0.9598,-0.6492 -1.342,-1.0009c-0.3855,-0.347 -0.7391,-0.6642 -1.0516,-0.9463c-0.3035,-0.2911 -0.5242,-0.5882 -0.728,-0.8104c-0.3959,-0.4556 -0.6212,-0.7169 -0.6212,-0.7169c0,0 0.2311,0.2561 0.6355,0.7039c0.2084,0.2177 0.4337,0.5095 0.743,0.7929c0.3177,0.2743 0.6765,0.5843 1.0672,0.9216c0.3868,0.3419 0.8765,0.6226 1.3558,0.9684c0.1217,0.0838 0.2448,0.1683 0.3698,0.2548c0.1328,0.0728 0.267,0.1482 0.4031,0.2229c0.2715,0.1501 0.5496,0.3042 0.8315,0.4602c0.5574,0.3256 1.189,0.553 1.7985,0.8442c0.6245,0.2606 1.2789,0.4784 1.9236,0.7143c0.6628,0.1852 1.314,0.4088 1.9736,0.5602c0.6597,0.1554 1.305,0.3192 1.9418,0.4251c0.6323,0.1287 1.2476,0.2216 1.833,0.3022c0.5835,0.0943 1.1415,0.1326 1.6527,0.195c2.0577,0.1891 3.4238,0.1534 3.4238,0.1534z" fill="#26214b" stroke="none" stroke-width="1"/><path d="M176.6052,181.5221c0,0 0.2995,-1.0425 0.894,-2.5387c0.1576,-0.3717 0.3119,-0.7799 0.5053,-1.1997c0.1876,-0.4218 0.3868,-0.8657 0.6141,-1.3155c0.2136,-0.4562 0.4643,-0.9131 0.7143,-1.3778c0.2442,-0.4686 0.5392,-0.9204 0.8081,-1.3838c0.2911,-0.4517 0.588,-0.8988 0.8895,-1.333c0.3249,-0.4172 0.6199,-0.8462 0.9487,-1.2277c0.3373,-0.373 0.6343,-0.7604 0.9677,-1.0795c0.3347,-0.3178 0.6329,-0.6363 0.9383,-0.8982c0.3125,-0.2522 0.5997,-0.4849 0.8537,-0.6896c0.252,-0.208 0.5079,-0.3393 0.7,-0.4732c0.3946,-0.2528 0.6199,-0.3971 0.6199,-0.3971c0,0 -0.2214,0.1502 -0.6089,0.414c-0.1882,0.1378 -0.4395,0.275 -0.6856,0.4888c-0.2475,0.2119 -0.5268,0.4504 -0.8316,0.7097c-0.2963,0.2684 -0.5854,0.5934 -0.909,0.9177c-0.3223,0.3256 -0.6075,0.7195 -0.9318,1.0978c-0.3171,0.3867 -0.5984,0.8208 -0.9097,1.2433c-0.2865,0.438 -0.5698,0.8897 -0.8465,1.344c-0.2546,0.468 -0.534,0.9216 -0.7632,1.3935c-0.237,0.4679 -0.4721,0.9268 -0.6726,1.3843c-0.2129,0.4511 -0.3985,0.8963 -0.5724,1.3188c-0.181,0.4198 -0.323,0.8286 -0.4688,1.1997c-0.5503,1.5014 -0.8146,2.5237 -0.8146,2.5237z" fill="#26214b" stroke="none" stroke-width="1"/></g><g data-paper-data="{&quot;index&quot;:null}"><path d="M204.2987,222.0368l-16.4959,1.218l8.8454,29.518c0,0 8.3023,-6.3908 8.3967,-6.2966c0.0951,0.0949 8.4241,8.0299 7.6649,7.9214c-2.3677,-0.3386 -10.1256,1.9492 -13.8106,4.0081c-3.6354,2.0311 -5.725,2.0311 -6.8645,0.0813c-1.1395,-1.9498 -17.2975,-37.7468 -18.829,-41.8128c-1.5316,-4.0659 1.5732,-4.5222 1.5732,-4.5222l17.2017,-3.0332" fill="#d7c3bc" stroke="none" stroke-width="1"/><path d="M196.5229,259.5241c0,0 -4.0288,-2.4977 0.125,-6.7515c2.0955,-2.1454 8.3017,-6.2277 8.3017,-6.2277l8.357,8.1775c0,0 -1.3974,-1.4955 -13.4927,3.4563c-0.9338,0.3822 -3.166,1.4182 -3.291,1.3454" fill="#5f5579" stroke="none" stroke-width="1"/><path d="M205.1133,222.0635l-17.3105,1.1913l8.6826,29.518l8.4651,-6.3908l8.3564,8.3406c-3.1471,-1.0835 -12.7517,3.0332 -16.6587,4.8745c-3.907,1.8412 -5.3181,-2.5452 -5.3181,-2.5452c0,0 -15.5732,-33.7425 -17.9069,-39.3209c-2.3338,-5.5783 1.7907,-5.7954 1.7907,-5.7954l16.8761,-3.0332" fill="none" stroke="#26214b" stroke-width="0.5"/><path d="M191.3256,207.8488c0,0 0.3159,0.3704 0.8693,1.0197c0.5509,0.6486 1.3551,1.5592 2.3182,2.6452c0.4942,0.5323 1.0112,1.1231 1.5817,1.7269c0.5606,0.6122 1.1688,1.2401 1.7972,1.8893c0.6127,0.6656 1.3049,1.2928 1.9665,1.9706c0.67,0.6701 1.3902,1.3071 2.0889,1.9674c0.7261,0.6272 1.4306,1.2823 2.1619,1.8796c0.7521,0.5687 1.4332,1.2121 2.1703,1.7256c0.362,0.2658 0.7189,0.5277 1.0679,0.7838c0.3425,0.2671 0.6863,0.5154 1.0366,0.7311c0.6987,0.4355 1.3291,0.9054 1.9529,1.2661c0.629,0.3503 1.2014,0.6857 1.7106,0.9847c0.5112,0.2937 0.9872,0.4855 1.3648,0.6811c0.7645,0.3828 1.2014,0.6012 1.2014,0.6012c0,0 -0.4701,-0.1216 -1.2945,-0.3601c-0.407,-0.1313 -0.9259,-0.2405 -1.4775,-0.4692c-0.5528,-0.2262 -1.1786,-0.4836 -1.8571,-0.7793c-0.6779,-0.2964 -1.3674,-0.7013 -2.115,-1.1016c-0.7573,-0.3867 -1.4801,-0.9099 -2.2595,-1.4084c-0.392,-0.2464 -0.7677,-0.5258 -1.1467,-0.8125c-0.3822,-0.2814 -0.7658,-0.5719 -1.1487,-0.8696c-0.7592,-0.6005 -1.4911,-1.2569 -2.2432,-1.8913c-0.7033,-0.685 -1.4293,-1.3486 -2.1013,-2.0421c-0.6707,-0.6947 -1.3232,-1.3856 -1.9203,-2.0836c-0.6153,-0.6818 -1.1727,-1.3733 -1.6917,-2.035c-0.5359,-0.648 -0.9911,-1.3018 -1.4267,-1.8906c-1.7139,-2.3827 -2.606,-4.129 -2.606,-4.129" fill="#26214b" stroke="none" stroke-width="1"/><path d="M196.6482,259.5971c0,0 -3.7436,-1.8959 -0.1628,-6.8243" fill="none" stroke="#26214b" stroke-width="0.5"/></g><g data-paper-data="{&quot;index&quot;:null}"><path d="M271.7691,221.6916c-13.3424,-13.4666 -4.3882,-31.3118 10.0461,-35.7528c14.4343,-4.441 19.9041,16.7579 21.6733,21.8624c1.93,5.5693 11.0196,11.3108 17.8288,15.9871c2.1795,1.4968 2.0864,3.4212 -1.2059,5.2287c-6.4719,3.5538 -32.2886,20.4644 -33.8624,22.3602c-1.5739,1.8959 1.5067,7.0824 2.4021,7.7329l-8.2515,9.6223c-0.3992,-9.9953 -6.2636,-14.7951 -2.8821,-18.4373c1.9424,-2.0915 23.6372,-18.8578 23.6372,-18.8578c-21.1309,-1.5748 -29.3856,-9.7457 -29.3856,-9.7457" fill="#d7c3bc" stroke="none" stroke-width="1"/><path d="M280.369,268.9919c0,0 0.2839,-2.8272 -3.2611,-13.0552c-0.2376,-0.6857 -0.7234,-1.9374 0.5047,-2.3131c1.0952,-0.3354 1.5205,0.3477 1.5205,0.3477c0.2233,-0.5583 0.1582,-1.9829 1.8037,-3.0956c1.1454,-0.7741 4.9208,-0.1378 4.9208,0.8417c0,1.476 0.1921,4.3532 2.6203,7.2824c0.0918,0.1105 -7.4226,8.4511 -8.1089,9.9921" fill="#5f5579" stroke="none" stroke-width="1"/><path d="M302.7871,205.6533c0,0 0.9767,6.0659 9.6046,12.0238l8.6279,5.9579c0,0 1.9535,1.2453 1.6279,2.6537c-0.3256,1.4084 -3.0279,3.1275 -6.5663,5.1455c-3.5384,2.018 -27.186,17.0061 -30.0075,20.0394c0,0 -1.3571,3.0325 2.4959,7.6367c0,0 -6.4023,6.6085 -8.2477,9.966c0,0 0.1628,-4.2245 -3.3645,-13.3236c0,0 -1.682,-3.9002 1.2483,-6.2289c2.9302,-2.3287 28.2168,-22.3142 28.2168,-22.3142" fill="none" stroke="#26214b" stroke-width="0.5"/><path d="M301.0732,231.4375c-2.9074,-0.3757 -10.8913,0.219 -25.635,-7.2071c-17.3105,-8.7195 -9.0622,-38.8335 -9.0622,-38.8335" fill="none" stroke="#26214b" stroke-width="0.5"/><path d="M276.7822,255.2471c0,0 -0.2077,-0.8826 0.5008,-1.4448c0.7084,-0.5622 1.7366,0 1.7366,0c0,0 0.5424,-2.6537 2.6587,-3.2497c2.1163,-0.596 4.1792,1.0834 4.1792,1.0834" fill="none" stroke="#26214b" stroke-width="0.5"/><path d="M279.0195,253.8025c3.8262,5.6057 3.233,12.4748 3.233,12.4748" fill="none" stroke="#26214b" stroke-width="0.5"/></g></g></g></svg>